<?xml version="1.0" encoding="UTF-8" standalone="no"?>
<!-- Created with Inkscape (http://www.inkscape.org/) -->

<svg
   width="19.397047mm"
   height="19.391422mm"
   viewBox="0 0 19.397047 19.391422"
   version="1.1"
   id="svg5"
   inkscape:version="1.1.2 (0a00cf5339, 2022-02-04)"
   sodipodi:docname="by2.svg"
   xmlns:inkscape="http://www.inkscape.org/namespaces/inkscape"
   xmlns:sodipodi="http://sodipodi.sourceforge.net/DTD/sodipodi-0.dtd"
   xmlns="http://www.w3.org/2000/svg"
   xmlns:svg="http://www.w3.org/2000/svg">
  <sodipodi:namedview
     id="namedview7"
     pagecolor="#ffffff"
     bordercolor="#666666"
     borderopacity="1.0"
     inkscape:pageshadow="2"
     inkscape:pageopacity="0.0"
     inkscape:pagecheckerboard="0"
     inkscape:document-units="mm"
     showgrid="false"
     fit-margin-top="0"
     fit-margin-left="0"
     fit-margin-right="0"
     fit-margin-bottom="0"
     inkscape:zoom="0.69664703"
     inkscape:cx="-27.99122"
     inkscape:cy="211.72846"
     inkscape:window-width="1856"
     inkscape:window-height="1016"
     inkscape:window-x="0"
     inkscape:window-y="0"
     inkscape:window-maximized="1"
     inkscape:current-layer="layer2" />
  <defs
     id="defs2" />
  <g
     inkscape:groupmode="layer"
     id="layer2"
     inkscape:label="vec"
     transform="translate(-112.59794,-92.470136)">
    <path
       d="m 122.2769,92.47211 c 2.76485,-0.05768 5.50957,1.151617 7.31236,3.252601 2.50861,2.718471 3.04267,6.914249 1.66134,10.289329 -1.48343,3.43302 -5.09003,5.87004 -8.84902,5.84306 -2.88575,0.0935 -5.70116,-1.29037 -7.53489,-3.49344 -2.9203,-3.2805 -3.02011,-8.623064 -0.30678,-12.056112 1.70581,-2.300605 4.4649,-3.794324 7.34316,-3.829277 0.12457,-0.0041 0.2492,-0.0062 0.37383,-0.0062 z m 0.0346,1.74819 c -2.65098,-0.07716 -5.18959,1.382205 -6.62827,3.579716 -2.02103,2.870754 -1.72051,7.115954 0.73513,9.640724 1.76969,2.04434 4.61344,3.0288 7.26934,2.53821 3.36446,-0.57875 6.29135,-3.52994 6.51541,-6.99263 0.28673,-2.55926 -0.73973,-5.210653 -2.72708,-6.861122 -1.4062,-1.257908 -3.28268,-1.928153 -5.16453,-1.904898 z m 2.59624,5.538893 c 0,1.321167 0,2.642327 0,3.963497 -0.36928,0 -0.73855,0 -1.10783,0 0,1.56931 0,3.13863 0,4.70794 -1.0039,0 -2.0078,0 -3.0117,0 0,-1.56931 0,-3.13863 0,-4.70794 -0.36926,0 -0.73853,0 -1.10779,0 0.008,-1.36264 -0.0151,-2.72666 0.0114,-4.088446 0.1699,-0.689879 0.9685,-0.458726 1.48922,-0.498338 1.07366,0.0075 2.14877,-0.01503 3.22152,0.01137 0.27916,0.05778 0.51393,0.320633 0.50522,0.61192 z m -3.96367,-2.492586 c -0.14177,-1.003651 0.93326,-1.60857 1.80887,-1.319207 1.04336,0.211319 1.17313,1.779626 0.46408,2.410955 -0.74394,0.525001 -2.17711,0.295432 -2.25186,-0.775301 l -0.0158,-0.15295 z"
       style="fill:#000000;fill-opacity:1;fill-rule:nonzero;stroke:none;stroke-width:0.0352777"
       id="path834" />
  </g>
</svg>
