<?xml version="1.0" encoding="UTF-8" standalone="no"?>
<!-- Created with Inkscape (http://www.inkscape.org/) -->

<svg
   width="28.693636mm"
   height="19.995487mm"
   viewBox="0 0 28.693636 19.995487"
   version="1.1"
   id="svg5"
   inkscape:version="1.1.2 (0a00cf5339, 2022-02-04)"
   sodipodi:docname="openlogic-wm-bw.svg"
   xmlns:inkscape="http://www.inkscape.org/namespaces/inkscape"
   xmlns:sodipodi="http://sodipodi.sourceforge.net/DTD/sodipodi-0.dtd"
   xmlns="http://www.w3.org/2000/svg"
   xmlns:svg="http://www.w3.org/2000/svg">
  <sodipodi:namedview
     id="namedview7"
     pagecolor="#ffffff"
     bordercolor="#666666"
     borderopacity="1.0"
     inkscape:pageshadow="2"
     inkscape:pageopacity="0.0"
     inkscape:pagecheckerboard="0"
     inkscape:document-units="mm"
     showgrid="false"
     fit-margin-top="0"
     fit-margin-left="0"
     fit-margin-right="0"
     fit-margin-bottom="0"
     inkscape:zoom="4.3655693"
     inkscape:cx="36.306834"
     inkscape:cy="39.055617"
     inkscape:window-width="1856"
     inkscape:window-height="1016"
     inkscape:window-x="0"
     inkscape:window-y="0"
     inkscape:window-maximized="1"
     inkscape:current-layer="layer2" />
  <defs
     id="defs2">
    <clipPath
       clipPathUnits="userSpaceOnUse"
       id="clipPath840">
      <path
         d="M 0,0 H 82 V 58 H 0 Z"
         id="path838" />
    </clipPath>
  </defs>
  <g
     inkscape:groupmode="layer"
     id="layer2"
     inkscape:label="vec"
     transform="translate(-91.995894,-102.42169)">
    <path
       d="m 122.27,510.441 c 0,38.438 -24.2192,66.411 -61.2505,66.411 -37.3476,0 -60.941375,-29.063 -60.941375,-65.473 0,-37.969 23.749975,-65.617 61.093775,-65.617 36.8789,0 61.0981,27.648 61.0981,64.679 z m -26.0981,0.321 c 0,-26.102 -14.0625,-42.821 -35,-42.821 -21.0938,0 -35,16.719 -35,43.438 0,25.633 13.9062,43.133 35,43.133 21.4062,0 35,-17.352 35,-43.75 z m 142.6561,24.679 c 0,25.469 -14.527,39.379 -40.937,39.379 h -56.09 V 447.789 h 26.09 v 45.313 h 32.5 c 23.437,0 38.437,16.558 38.437,42.339 z m -26.098,-1.562 c 0,-12.969 -6.558,-19.059 -20.46,-19.059 h -24.379 v 38.121 h 24.379 c 13.902,0 20.46,-6.089 20.46,-19.062 z m 140.942,-86.09 v 21.723 H 284.77 v 32.968 h 60.781 v 21.711 H 284.77 v 28.75 h 65.781 V 574.82 H 258.672 V 447.789 Z m 122.808,0 V 574.82 h -26.089 v -86.41 l -50.313,86.41 H 373.199 V 447.789 h 26.102 v 87.813 l 51.09,-87.813 z"
       style="fill:#1a1a1a;fill-opacity:1;fill-rule:nonzero;stroke:none"
       id="path844"
       transform="matrix(0.03527778,0,0,-0.03527778,91.993138,122.77175)" />
    <path
       d="M 93.9805,229.941 V 251.66 H 33.0508 V 356.969 H 6.94922 V 229.941 Z M 223.672,292.59 c 0,38.441 -24.223,66.41 -61.25,66.41 -37.344,0 -60.942,-29.059 -60.942,-65.469 0,-37.972 23.75,-65.621 61.098,-65.621 36.871,0 61.094,27.649 61.094,64.68 z m -26.094,0.32 c 0,-26.101 -14.058,-42.82 -35,-42.82 -21.098,0 -35,16.719 -35,43.441 0,25.629 13.902,43.129 35,43.129 21.402,0 35,-17.351 35,-43.75 z m 156.25,-62.969 v 68.278 H 302.891 V 276.5 h 28.91 c -1.723,-15.941 -16.723,-26.41 -32.192,-26.41 -21.089,0 -36.25,17.66 -36.25,43.75 0,27.351 13.442,42.82 35.621,42.82 14.219,0 25.161,-5.469 30.321,-20.32 h 24.527 c -3.129,26.101 -24.379,42.66 -55.156,42.66 -36.563,0 -61.402,-25.941 -61.402,-65.469 0,-38.441 25,-65.621 59.371,-65.621 17.031,0 28.589,6.09 38.281,19.531 l 3.129,-17.5 z m 48.633,0 v 127.028 h -26.09 V 229.941 Z m 130.66,43.43 H 507.66 c -1.57,-16.25 -11.879,-23.59 -28.129,-23.59 -20.152,0 -32.031,15.469 -32.031,43.278 0,27.972 12.34,43.601 32.969,43.601 14.062,0 23.281,-6.41 27.191,-22.82 H 532.5 C 530.309,343.219 508.121,359 479.531,359 443.75,359 421.41,334.469 421.41,293.371 c 0,-40.781 22.18,-65.461 57.5,-65.461 31.559,0 52.649,16.25 54.211,45.461 z"
       style="fill:#1a1a1a;fill-opacity:1;fill-rule:nonzero;stroke:none"
       id="path846"
       transform="matrix(0.03527778,0,0,-0.03527778,91.993138,122.77175)" />
    <path
       d="m 103.359,99.7383 c 0,25.4727 -14.5309,39.3827 -40.9371,39.3827 H 6.32813 V 12.0898 H 32.4219 v 45.3086 h 32.5 c 23.4375,0 38.4371,16.5625 38.4371,42.3399 z M 77.2695,98.1797 c 0,-12.9688 -6.5703,-19.0586 -20.4687,-19.0586 H 32.4219 v 38.1169 h 24.3789 c 13.8984,0 20.4687,-6.09 20.4687,-19.0583 z M 227.422,12.0898 v 4.6797 c -4.063,2.3516 -5.621,4.8516 -5.621,10.4688 -0.629,37.5 -1.41,39.2226 -17.5,46.1015 14.219,5.6211 21.398,15.9297 21.398,31.3982 0,19.692 -11.719,34.383 -34.219,34.383 H 123.359 V 12.0898 h 26.09 v 50.3086 h 30 c 11.41,0 16.25,-4.5273 16.25,-15.1601 l -0.308,-13.4375 c 0,-11.711 0.629,-15.6211 3.91,-21.711 z m -27.973,89.0582 c 0,-11.4097 -3.59,-16.8785 -18.429,-16.8785 h -31.571 v 32.9685 h 31.571 c 14.371,0 18.429,-5.148 18.429,-16.09 z M 363.59,74.7383 c 0,38.4417 -24.211,66.4097 -61.25,66.4097 -37.34,0 -60.93,-29.058 -60.93,-65.4683 0,-37.9688 23.75,-65.6289 61.09,-65.6289 36.879,0 61.09,27.6601 61.09,64.6875 z m -26.09,0.3125 c 0,-26.0899 -14.059,-42.8125 -35,-42.8125 -21.09,0 -35,16.7226 -35,43.4414 0,25.6213 13.91,43.1213 35,43.1213 21.41,0 35,-17.34 35,-43.7502 z m 117.031,-27.961 v 92.0312 h -26.09 V 47.0898 c 0,-9.539 -5.16,-14.8515 -14.222,-14.8515 -9.84,0 -14.059,5 -14.059,16.5625 V 59.1211 H 374.059 V 48.4883 c 0,-25.3086 15.941,-38.4375 39.691,-38.4375 25.941,0 40.781,13.289 40.781,37.039 z m 121.059,-35 v 21.711 h -68.91 v 32.9687 h 60.781 V 88.4883 H 506.68 v 28.7497 h 65.781 v 21.883 H 480.59 V 12.0898 Z m 127.07,43.4297 h -25.469 c -1.57,-16.25 -11.882,-23.5898 -28.132,-23.5898 -20.149,0 -32.028,15.4687 -32.028,43.2812 0,27.9691 12.348,43.5901 32.969,43.5901 14.059,0 23.281,-6.403 27.191,-22.8127 h 24.84 c -2.191,29.3827 -24.371,45.1597 -52.972,45.1597 -35.778,0 -58.118,-24.527 -58.118,-65.6285 0,-40.7812 22.18,-65.4687 57.5,-65.4687 31.559,0 52.649,16.25 54.219,45.4687 z m 110.781,61.7185 v 21.883 H 711.719 V 117.238 H 750.16 V 12.0898 h 26.09 V 117.238 Z"
       style="fill:#1a1a1a;fill-opacity:1;fill-rule:nonzero;stroke:none"
       id="path848"
       transform="matrix(0.03527778,0,0,-0.03527778,91.993138,122.77175)" />
  </g>
</svg>
