<?xml version="1.0" encoding="UTF-8" standalone="no"?>
<!-- Created with Inkscape (http://www.inkscape.org/) -->

<svg
   width="123.70929mm"
   height="16.801041mm"
   viewBox="0 0 123.70929 16.801041"
   version="1.1"
   id="svg5"
   inkscape:version="1.1.2 (0a00cf5339, 2022-02-04)"
   sodipodi:docname="ti-print.svg"
   xmlns:inkscape="http://www.inkscape.org/namespaces/inkscape"
   xmlns:sodipodi="http://sodipodi.sourceforge.net/DTD/sodipodi-0.dtd"
   xmlns="http://www.w3.org/2000/svg"
   xmlns:svg="http://www.w3.org/2000/svg">
  <sodipodi:namedview
     id="namedview7"
     pagecolor="#ffffff"
     bordercolor="#666666"
     borderopacity="1.0"
     inkscape:pageshadow="2"
     inkscape:pageopacity="0.0"
     inkscape:pagecheckerboard="0"
     inkscape:document-units="mm"
     showgrid="false"
     fit-margin-top="0"
     fit-margin-left="0"
     fit-margin-right="0"
     fit-margin-bottom="0"
     inkscape:zoom="4.2487353"
     inkscape:cx="73.551299"
     inkscape:cy="57.075808"
     inkscape:window-width="1856"
     inkscape:window-height="1016"
     inkscape:window-x="0"
     inkscape:window-y="0"
     inkscape:window-maximized="1"
     inkscape:current-layer="layer2" />
  <defs
     id="defs2" />
  <g
     inkscape:groupmode="layer"
     id="layer2"
     inkscape:label="vec"
     transform="translate(-54.362747,-89.966489)">
    <path
       d="m 32.48,37.766 c -0.214,-0.368 -0.429,-0.578 -0.609,-0.578 -0.101,0 -0.273,0.058 -0.539,0.343 -0.625,0.668 -1.375,0.789 -2.141,0.34 v 4.379 c 0.536,0.504 0.836,0.613 0.993,0.613 0.089,0 0.199,-0.027 0.382,-0.222 0.043,-0.047 0.09,-0.102 0.137,-0.153 0.254,-0.293 0.57,-0.664 1.121,-0.664 0.203,0 0.422,0.059 0.656,0.168 z m -4.019,0.105 c -0.297,0.176 -0.594,0.266 -0.895,0.266 -0.449,0 -0.863,-0.203 -1.246,-0.606 -0.261,-0.285 -0.433,-0.343 -0.531,-0.343 -0.187,0 -0.398,0.21 -0.609,0.578 v 4.226 c 0.234,-0.109 0.449,-0.168 0.652,-0.168 0.551,0 0.871,0.371 1.121,0.664 0.047,0.051 0.094,0.106 0.137,0.153 0.183,0.195 0.297,0.222 0.383,0.222 0.16,0 0.457,-0.109 0.988,-0.613 z m 4.742,4.465 v 1 l -0.586,-0.43 c -0.414,-0.312 -0.66,-0.379 -0.793,-0.379 -0.199,0 -0.347,0.157 -0.566,0.414 -0.051,0.055 -0.102,0.114 -0.156,0.168 -0.286,0.305 -0.582,0.453 -0.918,0.453 -0.399,0 -0.829,-0.226 -1.356,-0.687 -0.523,0.461 -0.957,0.687 -1.355,0.687 -0.336,0 -0.633,-0.148 -0.922,-0.453 -0.051,-0.054 -0.102,-0.113 -0.153,-0.168 -0.222,-0.257 -0.367,-0.414 -0.566,-0.414 -0.133,0 -0.383,0.067 -0.793,0.379 l -0.586,0.43 v -1 L 24.148,42.25 v -6.016 l 1.727,0.262 c 0.027,0.004 0.055,0.008 0.082,0.012 l 2.266,0.34 v -0.379 h 1.215 v 0.379 l 4.07,-0.864 v 6.266 z"
       style="fill:#211e1e;fill-opacity:1;fill-rule:nonzero;stroke:none"
       id="path946"
       transform="matrix(0.35277777,0,0,-0.35277777,54.362747,106.76753)" />
    <path
       d="m 12.688,37.766 c -0.211,-0.368 -0.426,-0.578 -0.61,-0.578 -0.098,0 -0.273,0.058 -0.535,0.343 -0.379,0.403 -0.797,0.606 -1.246,0.606 -0.297,0 -0.594,-0.09 -0.891,-0.266 v 4.379 c 0.532,0.504 0.828,0.613 0.985,0.613 0.089,0 0.203,-0.027 0.386,-0.222 0.043,-0.047 0.09,-0.102 0.133,-0.153 0.254,-0.293 0.574,-0.664 1.121,-0.664 0.207,0 0.422,0.059 0.657,0.168 z M 8.672,37.871 C 7.91,38.32 7.156,38.199 6.535,37.531 6.27,37.246 6.094,37.188 5.996,37.188 c -0.184,0 -0.394,0.21 -0.609,0.578 v 4.226 c 0.234,-0.109 0.449,-0.168 0.656,-0.168 0.551,0 0.867,0.371 1.121,0.664 0.043,0.051 0.09,0.106 0.137,0.153 0.183,0.195 0.293,0.222 0.383,0.222 0.152,0 0.453,-0.109 0.988,-0.613 z m 4.742,4.465 v 1 l -0.586,-0.43 c -0.414,-0.312 -0.66,-0.379 -0.793,-0.379 -0.203,0 -0.344,0.157 -0.566,0.414 -0.055,0.055 -0.106,0.114 -0.153,0.168 -0.289,0.305 -0.586,0.453 -0.921,0.453 -0.403,0 -0.833,-0.226 -1.36,-0.687 -0.523,0.461 -0.953,0.687 -1.351,0.687 -0.34,0 -0.637,-0.148 -0.922,-0.453 C 6.711,43.055 6.66,42.996 6.609,42.941 6.391,42.684 6.242,42.527 6.043,42.527 c -0.133,0 -0.379,0.067 -0.793,0.379 l -0.586,0.43 v -1 L 4.359,42.25 v -6.266 l 4.071,0.864 v -0.379 h 1.215 v 0.379 l 2.265,-0.34 c 0.028,-0.004 0.055,-0.008 0.082,-0.012 l 1.723,-0.262 v 6.016 z"
       style="fill:#211e1e;fill-opacity:1;fill-rule:nonzero;stroke:none"
       id="path948"
       transform="matrix(0.35277777,0,0,-0.35277777,54.362747,106.76753)" />
    <path
       d="m 21.82,39.664 c -0.047,-0.035 -0.09,-0.055 -0.136,-0.043 -0.243,0.031 -0.848,0.207 -1.063,0.32 -0.035,0.012 -0.059,0.032 -0.082,0.047 -0.156,0.11 -0.258,0.266 -0.34,0.41 -0.023,0.192 -0.035,0.411 0.067,0.606 0.101,0.215 0.504,0.723 0.672,0.875 0.093,0.09 0.308,0 0.386,-0.059 0.02,-0.008 0.024,-0.019 0.024,-0.019 0.101,-0.133 0.632,-1.723 0.632,-1.887 -0.003,-0.035 -0.062,-0.176 -0.16,-0.25 m -0.429,-1.285 c -0.004,-0.02 -0.012,-0.024 -0.012,-0.024 -0.098,-0.14 -1.5,-1.121 -1.668,-1.167 -0.035,-0.004 -0.188,0.003 -0.297,0.066 -0.047,0.031 -0.074,0.07 -0.086,0.113 -0.039,0.238 -0.07,0.844 -0.023,1.074 0.004,0.036 0.011,0.063 0.019,0.09 0.063,0.18 0.188,0.324 0.305,0.442 0.18,0.082 0.391,0.156 0.617,0.129 0.242,-0.036 0.879,-0.239 1.078,-0.352 0.125,-0.062 0.102,-0.281 0.067,-0.371 m -2.442,0.691 c -0.226,0 -0.414,0.129 -0.508,0.309 -0.007,0 -0.011,-0.004 -0.015,-0.004 -0.25,0 -0.473,0.152 -0.551,0.387 -0.043,0.14 -0.035,0.289 0.035,0.426 0.028,0.054 0.07,0.097 0.117,0.136 -0.035,0.086 -0.05,0.176 -0.031,0.27 0.02,0.148 0.106,0.277 0.227,0.363 0.175,0.121 0.414,0.125 0.601,0.035 0.199,0.145 0.481,0.164 0.688,0.024 0.121,-0.094 0.203,-0.219 0.226,-0.368 0.012,-0.058 0.004,-0.121 -0.008,-0.179 0.082,-0.051 0.153,-0.117 0.196,-0.199 0.066,-0.137 0.082,-0.282 0.031,-0.426 -0.066,-0.203 -0.25,-0.34 -0.465,-0.371 -0.07,-0.231 -0.285,-0.403 -0.543,-0.403 M 18.367,37.43 C 18.34,37.297 18.113,37.25 18.02,37.25 h -0.032 c -0.168,0.055 -1.562,1.039 -1.668,1.172 -0.015,0.031 -0.05,0.18 -0.019,0.297 0.011,0.051 0.039,0.086 0.082,0.109 0.219,0.113 0.797,0.332 1.043,0.36 0.031,0.007 0.058,0.007 0.094,0.007 0.187,0 0.367,-0.07 0.519,-0.136 0.137,-0.145 0.281,-0.317 0.32,-0.532 0.047,-0.234 0.047,-0.882 0.008,-1.097 m -2.5,2.57 c -0.008,0.02 -0.008,0.031 -0.008,0.031 -0.004,0.16 0.536,1.754 0.637,1.883 0.024,0.027 0.16,0.106 0.285,0.113 0.051,0.004 0.098,-0.007 0.133,-0.039 0.18,-0.168 0.559,-0.629 0.664,-0.843 0.016,-0.032 0.027,-0.055 0.031,-0.086 0.055,-0.176 0.047,-0.368 0.028,-0.524 C 17.539,40.367 17.414,40.184 17.215,40.078 17,39.965 16.375,39.762 16.145,39.738 16.004,39.719 15.895,39.91 15.867,40 m 2.035,2.824 c 0.024,0.012 0.032,0.016 0.032,0.016 0.164,0.055 1.898,0.047 2.058,-0.004 0.031,-0.012 0.149,-0.113 0.196,-0.223 0.023,-0.054 0.023,-0.097 0,-0.136 -0.106,-0.215 -0.461,-0.707 -0.637,-0.872 -0.024,-0.015 -0.047,-0.035 -0.071,-0.058 -0.16,-0.109 -0.347,-0.156 -0.511,-0.184 -0.192,0.039 -0.41,0.098 -0.578,0.25 -0.18,0.16 -0.559,0.672 -0.661,0.875 -0.054,0.121 0.098,0.282 0.172,0.336 m 4.59,-3.351 c 0.11,0.136 0.168,0.297 0.168,0.375 0.004,0.277 -0.715,2.445 -0.887,2.66 -0.043,0.062 -0.195,0.168 -0.378,0.215 0.078,0.257 0.046,0.488 -0.106,0.589 -0.156,0.114 -0.402,0.059 -0.652,-0.109 -0.098,0.141 -0.235,0.25 -0.317,0.281 -0.172,0.051 -1.086,0.071 -1.597,0.071 -0.336,0 -1.125,-0.008 -1.305,-0.067 -0.082,-0.023 -0.242,-0.152 -0.348,-0.312 -0.226,0.156 -0.465,0.199 -0.617,0.094 -0.156,-0.11 -0.18,-0.348 -0.098,-0.618 -0.164,-0.054 -0.296,-0.144 -0.343,-0.199 -0.176,-0.219 -0.907,-2.379 -0.903,-2.652 0,-0.082 0.079,-0.278 0.207,-0.418 C 15.07,39.211 14.941,39 15,38.816 c 0.062,-0.179 0.301,-0.277 0.602,-0.277 0.007,-0.148 0.05,-0.289 0.093,-0.351 0.164,-0.227 2.067,-1.567 2.332,-1.653 0.035,-0.008 0.071,-0.012 0.121,-0.012 0.094,0 0.219,0.024 0.336,0.063 0.09,-0.281 0.266,-0.477 0.461,-0.477 0.203,0 0.379,0.207 0.465,0.496 0.106,-0.027 0.199,-0.039 0.285,-0.039 0.043,0 0.082,0 0.11,0.008 0.269,0.082 2.179,1.414 2.347,1.637 0.047,0.066 0.094,0.23 0.09,0.402 0.297,0.004 0.531,0.098 0.59,0.278 0.066,0.187 -0.082,0.406 -0.34,0.582"
       style="fill:#211e1e;fill-opacity:1;fill-rule:nonzero;stroke:none"
       id="path950"
       transform="matrix(0.35277777,0,0,-0.35277777,54.362747,106.76753)" />
    <path
       d="m 18.332,39.996 c -0.098,-0.035 -0.152,-0.137 -0.121,-0.234 0.031,-0.094 0.141,-0.149 0.242,-0.117 0.102,0.031 0.156,0.136 0.121,0.234 -0.027,0.098 -0.136,0.148 -0.242,0.117"
       style="fill:#211e1e;fill-opacity:1;fill-rule:nonzero;stroke:none"
       id="path952"
       transform="matrix(0.35277777,0,0,-0.35277777,54.362747,106.76753)" />
    <path
       d="m 19.207,40.762 c -0.09,0.058 -0.207,0.043 -0.266,-0.043 -0.066,-0.082 -0.046,-0.199 0.043,-0.258 0.082,-0.063 0.204,-0.043 0.262,0.043 0.063,0.078 0.047,0.195 -0.039,0.258"
       style="fill:#211e1e;fill-opacity:1;fill-rule:nonzero;stroke:none"
       id="path954"
       transform="matrix(0.35277777,0,0,-0.35277777,54.362747,106.76753)" />
    <path
       d="m 18.332,40.609 c -0.086,-0.058 -0.105,-0.171 -0.043,-0.257 0.063,-0.082 0.18,-0.106 0.273,-0.043 0.083,0.062 0.102,0.179 0.036,0.261 -0.063,0.082 -0.18,0.102 -0.266,0.039"
       style="fill:#211e1e;fill-opacity:1;fill-rule:nonzero;stroke:none"
       id="path956"
       transform="matrix(0.35277777,0,0,-0.35277777,54.362747,106.76753)" />
    <path
       d="m 19.625,40.008 c 0.035,0.094 -0.023,0.199 -0.125,0.23 -0.098,0.035 -0.207,-0.019 -0.242,-0.117 -0.031,-0.098 0.023,-0.207 0.125,-0.234 0.101,-0.028 0.211,0.023 0.242,0.121"
       style="fill:#211e1e;fill-opacity:1;fill-rule:nonzero;stroke:none"
       id="path958"
       transform="matrix(0.35277777,0,0,-0.35277777,54.362747,106.76753)" />
    <path
       d="m 19.008,39.762 c -0.11,0 -0.192,-0.082 -0.192,-0.188 0,-0.101 0.082,-0.183 0.192,-0.183 0.105,0 0.191,0.082 0.191,0.183 0,0.106 -0.086,0.188 -0.191,0.188"
       style="fill:#211e1e;fill-opacity:1;fill-rule:nonzero;stroke:none"
       id="path960"
       transform="matrix(0.35277777,0,0,-0.35277777,54.362747,106.76753)" />
    <path
       d="m 29.867,14.809 c -0.722,-0.579 -1.289,-0.977 -1.746,-1.301 -1.07,-0.754 -1.809,-1.442 -1.769,-2.266 l 0.082,-0.836 c -0.641,0.317 -0.883,0.656 -0.946,1.301 -0.164,1.855 1.653,3.211 2.219,3.586 0.379,0.258 0.711,0.422 1.012,0.578 0.582,0.301 1.129,0.578 1.129,1.234 0,0.614 -0.582,1.071 -1.145,1.375 1.551,0.903 3.391,2.719 3.746,6.332 0.239,-0.332 0.473,-0.667 0.633,-0.902 1.195,-1.769 0.75,-5.914 -3.215,-9.101 m 1.637,10.586 C 31.277,21.32 29.09,19.66 27.633,18.996 Z m -25.145,0 3.875,-6.399 C 8.773,19.66 6.586,21.32 6.359,25.395 m 1.657,-8.29 c 0,-0.656 0.546,-0.933 1.132,-1.234 0.297,-0.156 0.633,-0.32 1.012,-0.578 0.567,-0.375 2.383,-1.731 2.215,-3.586 -0.059,-0.645 -0.301,-0.984 -0.941,-1.301 l 0.082,0.836 c 0.039,0.824 -0.7,1.512 -1.774,2.266 C 9.289,13.832 8.719,14.23 7.996,14.809 4.031,17.996 3.59,22.141 4.785,23.91 4.945,24.145 5.18,24.48 5.418,24.812 5.773,21.199 7.613,19.383 9.164,18.48 8.602,18.176 8.016,17.719 8.016,17.105 m 25.886,7.325 c -0.449,0.652 -1.714,2.07 -1.722,2.078 l 0.215,0.328 c 0.46,0.043 0.824,0.43 0.824,0.902 0,0.508 -0.41,0.914 -0.914,0.914 -0.504,0 -0.914,-0.406 -0.914,-0.914 0,-0.097 0.019,-0.191 0.047,-0.277 -0.008,-0.008 -0.02,-0.012 -0.016,-0.027 L 18.934,6.516 6.445,27.434 c 0.004,0.015 -0.007,0.019 -0.019,0.027 0.031,0.086 0.051,0.18 0.051,0.277 0,0.508 -0.411,0.914 -0.915,0.914 -0.503,0 -0.914,-0.406 -0.914,-0.914 0,-0.472 0.364,-0.859 0.825,-0.902 L 5.688,26.508 C 5.68,26.5 4.414,25.082 3.965,24.43 2.621,22.445 2.77,17.781 7.371,14.082 c 0.746,-0.598 1.328,-1.008 1.793,-1.336 1.027,-0.719 1.422,-1.043 1.375,-1.578 l -0.18,-2.305 1.344,0.625 c 1.063,0.469 1.555,1.11 1.649,2.137 0.144,1.594 -0.844,3.254 -2.637,4.449 -0.426,0.278 -0.805,0.481 -1.11,0.633 -0.3,0.152 -0.582,0.316 -0.609,0.398 -0.058,0.176 0.281,0.465 1.266,0.907 0.101,0.047 0.285,0.121 0.453,0.191 l 8.219,-13.566 8.218,13.566 c 0.168,-0.07 0.352,-0.144 0.453,-0.191 0.985,-0.442 1.325,-0.731 1.266,-0.907 -0.027,-0.082 -0.309,-0.246 -0.609,-0.398 -0.309,-0.152 -0.688,-0.355 -1.114,-0.633 -1.793,-1.195 -2.777,-2.855 -2.632,-4.449 0.093,-1.027 0.586,-1.668 1.644,-2.137 l 1.344,-0.625 -0.18,2.305 c -0.043,0.535 0.352,0.859 1.375,1.578 0.469,0.328 1.051,0.738 1.793,1.336 4.602,3.699 4.754,8.363 3.41,10.348"
       style="fill:#211e1e;fill-opacity:1;fill-rule:nonzero;stroke:none"
       id="path962"
       transform="matrix(0.35277777,0,0,-0.35277777,54.362747,106.76753)" />
    <path
       d="m 35.66,30.984 c -1.699,0.871 -3.75,1.602 -5.926,2.172 0.039,0.231 0.075,0.453 0.094,0.668 0.059,0.61 -0.055,1.074 -0.336,1.383 -0.207,0.227 -0.484,0.352 -0.785,0.352 -0.324,0 -0.922,-0.153 -1.285,-1.168 -0.082,-0.223 -0.172,-0.434 -0.27,-0.641 -2.914,0.582 -5.918,0.895 -8.574,0.895 -2.66,0 -5.625,-0.313 -8.543,-0.895 -0.097,0.203 -0.187,0.418 -0.269,0.641 -0.364,1.015 -0.961,1.168 -1.286,1.168 -0.3,0 -0.578,-0.125 -0.781,-0.352 C 7.418,34.898 7.301,34.434 7.359,33.824 7.379,33.613 7.41,33.391 7.453,33.168 5.266,32.59 3.207,31.863 1.496,30.984 v 11.36 c 0,0 4.469,3.863 17.082,3.863 12.61,0 17.082,-3.863 17.082,-3.863 z M 14.262,28.961 c 0.961,-0.336 0.207,-2.137 -1.137,-1.582 -3.137,1.305 -4.629,4.172 -4.848,6.527 -0.086,0.899 0.36,1.024 0.664,0.18 1.176,-3.277 3.957,-4.652 5.321,-5.125 m 8.613,0.871 c -0.305,-0.098 -0.57,-0.168 -0.754,-0.207 -0.379,-0.082 -0.762,-0.141 -1.23,0.25 -0.477,0.398 -0.563,0.633 -2.297,0.633 -1.735,0 -1.821,-0.235 -2.293,-0.633 -0.473,-0.391 -0.856,-0.332 -1.235,-0.25 -0.16,0.035 -0.39,0.094 -0.644,0.168 -0.813,0.289 -2.383,1.043 -3.578,2.613 2.652,0.524 5.355,0.809 7.781,0.809 2.406,0 5.094,-0.277 7.73,-0.793 -1.144,-1.516 -2.64,-2.27 -3.48,-2.59 m 0.098,-0.871 c 1.359,0.473 4.14,1.848 5.316,5.125 0.305,0.844 0.75,0.719 0.664,-0.18 -0.215,-2.355 -1.711,-5.222 -4.844,-6.527 -1.343,-0.555 -2.097,1.246 -1.136,1.582 m -4.352,-5.719 v -0.004 l -0.004,0.004 -0.008,-0.004 v 0.004 c -2.683,1.113 -4.711,0.844 -5.043,1.707 -0.207,0.547 0.379,1.356 0.7,1.617 0.379,0.317 0.879,-0.078 0.504,-0.507 -0.317,-0.352 -0.524,-0.582 -0.387,-0.844 0.187,-0.352 1.961,-0.266 4.234,-1.121 2.274,0.855 4.047,0.769 4.231,1.121 0.136,0.262 -0.071,0.492 -0.383,0.844 -0.379,0.429 0.121,0.824 0.504,0.507 0.316,-0.261 0.906,-1.07 0.695,-1.617 -0.332,-0.863 -2.355,-0.594 -5.043,-1.707 m 1.508,-0.609 c 0,0 0.195,0.344 0.793,0.512 -0.086,-0.106 -0.145,-0.235 -0.145,-0.383 0,-0.356 0.293,-0.641 0.657,-0.641 0.363,0 0.66,0.285 0.66,0.641 0,0.191 -0.086,0.355 -0.223,0.476 0.52,0.094 1.059,0.356 1.059,0.356 -0.121,-0.371 -0.395,-1.809 -1.332,-1.91 -1.168,-0.133 -1.469,0.949 -1.469,0.949 m -4.328,-0.512 c 0.359,0 0.652,0.285 0.652,0.641 0,0.148 -0.055,0.277 -0.141,0.383 0.594,-0.168 0.79,-0.512 0.79,-0.512 0,0 -0.301,-1.082 -1.465,-0.949 -0.942,0.101 -1.215,1.539 -1.332,1.91 0,0 0.539,-0.262 1.054,-0.356 -0.132,-0.121 -0.222,-0.285 -0.222,-0.476 0,-0.356 0.297,-0.641 0.664,-0.641 m 0.703,-7.379 c -0.188,0.106 -0.145,0.41 0.152,0.528 0.348,0.136 0.973,0.496 1.149,1.128 0.156,0.575 -0.067,0.973 -0.328,1.036 -0.243,0.058 -0.504,-0.106 -0.403,-0.407 0.078,-0.226 0.321,-0.339 0.41,-0.394 0.145,-0.09 0.02,-0.285 -0.168,-0.25 -0.41,0.082 -0.644,0.531 -0.628,0.844 0.019,0.492 0.578,0.609 0.882,0.546 0.481,-0.089 0.828,-0.566 0.629,-1.39 -0.183,-0.774 -0.875,-1.195 -1.23,-1.36 0.312,-0.128 0.992,-0.238 1.648,-0.277 0.653,0.039 1.332,0.149 1.649,0.277 -0.36,0.165 -1.047,0.586 -1.235,1.36 -0.199,0.824 0.153,1.301 0.629,1.39 0.309,0.063 0.867,-0.054 0.887,-0.546 0.015,-0.313 -0.223,-0.762 -0.633,-0.844 -0.184,-0.035 -0.312,0.16 -0.164,0.25 0.09,0.055 0.328,0.168 0.406,0.394 0.106,0.301 -0.156,0.465 -0.402,0.407 -0.262,-0.063 -0.484,-0.461 -0.324,-1.036 0.175,-0.632 0.797,-0.992 1.144,-1.128 0.301,-0.118 0.34,-0.422 0.156,-0.528 -0.613,-0.351 -1.515,-0.43 -2.07,-0.437 -0.015,0 -0.031,0 -0.043,0 -0.015,0 -0.031,0 -0.047,0 -0.554,0.007 -1.453,0.086 -2.066,0.437 M 35.66,23.289 C 35.66,13.754 22.121,2.727 18.625,1.742 15.125,2.727 1.496,13.754 1.496,23.289 v 5.906 c 1.797,1.02 4.004,1.86 6.356,2.508 0.527,-1.433 1.48,-2.914 2.968,-4.043 -1.234,-0.43 -2.644,-0.465 -3.734,0.254 0.355,-0.906 1.469,-2.09 2.269,-2.867 0.149,0.094 0.293,0.223 0.399,0.336 0.324,0.344 0.617,0.039 0.394,-0.246 -0.074,-0.098 -0.273,-0.379 -0.386,-0.473 0.238,-0.223 0.414,-0.379 0.465,-0.422 0.164,0.098 0.328,0.246 0.449,0.371 0.32,0.348 0.613,0.043 0.39,-0.242 -0.074,-0.101 -0.281,-0.398 -0.394,-0.484 0.195,-0.16 0.414,-0.332 0.605,-0.465 0.407,0.512 0.84,1.047 1.493,0.715 0.695,-0.356 0.007,-0.825 0.007,-1.516 0,-2.773 1.707,-3.805 2.141,-4.98 0.434,-1.172 0.894,-3.274 1.223,-3.848 0.324,-0.57 1.789,-1.199 2.453,-0.676 0.664,-0.523 2.117,0.113 2.453,0.676 0.344,0.574 0.754,2.676 1.191,3.848 0.43,1.175 2.172,2.207 2.172,4.98 0,0.691 -0.687,1.16 0.008,1.516 0.652,0.332 1.09,-0.203 1.492,-0.715 0.192,0.133 0.41,0.305 0.606,0.465 -0.114,0.086 -0.317,0.383 -0.395,0.484 -0.223,0.285 0.07,0.59 0.395,0.242 0.117,-0.125 0.285,-0.273 0.445,-0.371 0.055,0.043 0.227,0.199 0.469,0.422 -0.118,0.094 -0.313,0.375 -0.391,0.473 -0.223,0.285 0.07,0.59 0.395,0.246 0.105,-0.113 0.25,-0.242 0.398,-0.336 0.805,0.777 1.914,1.961 2.27,2.867 -1.043,-0.691 -2.575,-0.684 -3.79,-0.297 1.528,1.137 2.5,2.653 3.032,4.11 2.34,-0.637 4.535,-1.469 6.316,-2.473 z M 18.582,47.625 C 5.441,47.625 0,43.215 0,43.215 V 23.441 C 0,12.492 14.473,1.133 18.582,0 22.684,1.133 37.16,12.492 37.16,23.441 v 19.774 c 0,0 -5.441,4.41 -18.578,4.41"
       style="fill:#211e1e;fill-opacity:1;fill-rule:nonzero;stroke:none"
       id="path964"
       transform="matrix(0.35277777,0,0,-0.35277777,54.362747,106.76753)" />
    <path
       d="m 47.57,33.785 v 6.598 h 2.539 v -6.531 c 0,-1.883 0.942,-2.856 2.493,-2.856 1.55,0 2.488,0.942 2.488,2.774 v 6.613 h 2.543 v -6.516 c 0,-3.496 -1.965,-5.211 -5.067,-5.211 -3.101,0 -4.996,1.731 -4.996,5.129"
       style="fill:#211e1e;fill-opacity:1;fill-rule:nonzero;stroke:none"
       id="path834"
       transform="matrix(0.35277777,0,0,-0.35277777,54.362747,106.76753)" />
    <path
       d="m 60.223,40.383 h 2.343 l 5.411,-7.11 v 7.11 h 2.507 V 28.836 H 68.32 l -5.59,7.34 v -7.34 h -2.507 z"
       style="fill:#211e1e;fill-opacity:1;fill-rule:nonzero;stroke:none"
       id="path836"
       transform="matrix(0.35277777,0,0,-0.35277777,54.362747,106.76753)" />
    <path
       d="M 73.371,40.383 H 75.91 V 28.836 h -2.539 z"
       style="fill:#211e1e;fill-opacity:1;fill-rule:nonzero;stroke:none"
       id="path838"
       transform="matrix(0.35277777,0,0,-0.35277777,54.362747,106.76753)" />
    <path
       d="m 77.809,40.383 h 2.804 l 3.02,-8.133 3.019,8.133 h 2.735 L 84.719,28.754 h -2.242 z"
       style="fill:#211e1e;fill-opacity:1;fill-rule:nonzero;stroke:none"
       id="path840"
       transform="matrix(0.35277777,0,0,-0.35277777,54.362747,106.76753)" />
    <path
       d="m 91.172,40.383 h 8.711 v -2.262 h -6.188 v -2.34 h 5.446 V 33.52 h -5.446 v -2.422 h 6.27 v -2.262 h -8.793 z"
       style="fill:#211e1e;fill-opacity:1;fill-rule:nonzero;stroke:none"
       id="path842"
       transform="matrix(0.35277777,0,0,-0.35277777,54.362747,106.76753)" />
    <path
       d="m 107.34,34.773 c 1.238,0 1.945,0.661 1.945,1.633 v 0.035 c 0,1.09 -0.758,1.649 -1.996,1.649 h -2.523 v -3.317 z m -5.113,5.61 h 5.277 c 1.469,0 2.605,-0.414 3.367,-1.172 0.641,-0.641 0.988,-1.551 0.988,-2.637 v -0.035 c 0,-1.863 -1.007,-3.035 -2.476,-3.578 l 2.824,-4.125 h -2.969 l -2.476,3.695 h -1.996 v -3.695 h -2.539 z"
       style="fill:#211e1e;fill-opacity:1;fill-rule:nonzero;stroke:none"
       id="path844"
       transform="matrix(0.35277777,0,0,-0.35277777,54.362747,106.76753)" />
    <path
       d="m 113.363,30.52 1.5,1.796 c 1.039,-0.855 2.129,-1.402 3.446,-1.402 1.043,0 1.668,0.414 1.668,1.09 v 0.031 c 0,0.645 -0.395,0.977 -2.325,1.469 -2.328,0.594 -3.828,1.238 -3.828,3.531 v 0.031 c 0,2.094 1.684,3.481 4.043,3.481 1.68,0 3.117,-0.527 4.285,-1.469 l -1.316,-1.91 c -1.024,0.707 -2.031,1.137 -3.004,1.137 -0.973,0 -1.484,-0.446 -1.484,-1.008 v -0.031 c 0,-0.758 0.496,-1.008 2.492,-1.516 2.34,-0.613 3.66,-1.453 3.66,-3.465 V 32.25 c 0,-2.293 -1.746,-3.578 -4.238,-3.578 -1.75,0 -3.512,0.609 -4.899,1.848"
       style="fill:#211e1e;fill-opacity:1;fill-rule:nonzero;stroke:none"
       id="path846"
       transform="matrix(0.35277777,0,0,-0.35277777,54.362747,106.76753)" />
    <path
       d="m 124.828,40.383 h 2.539 V 28.836 h -2.539 z"
       style="fill:#211e1e;fill-opacity:1;fill-rule:nonzero;stroke:none"
       id="path848"
       transform="matrix(0.35277777,0,0,-0.35277777,54.362747,106.76753)" />
    <path
       d="m 132.945,38.039 h -3.515 v 2.344 H 139 v -2.344 h -3.516 v -9.203 h -2.539 z"
       style="fill:#211e1e;fill-opacity:1;fill-rule:nonzero;stroke:none"
       id="path850"
       transform="matrix(0.35277777,0,0,-0.35277777,54.362747,106.76753)" />
    <path
       d="m 144.195,33.391 -4.437,6.992 h 2.969 l 2.753,-4.637 2.805,4.637 h 2.887 l -4.438,-6.945 v -4.602 h -2.539 z"
       style="fill:#211e1e;fill-opacity:1;fill-rule:nonzero;stroke:none"
       id="path852"
       transform="matrix(0.35277777,0,0,-0.35277777,54.362747,106.76753)" />
    <path
       d="m 166.812,34.578 v 0.031 c 0,1.981 -1.453,3.629 -3.496,3.629 -2.046,0 -3.464,-1.617 -3.464,-3.593 v -0.036 c 0,-1.98 1.453,-3.629 3.496,-3.629 2.047,0 3.464,1.618 3.464,3.598 m -9.617,0 v 0.031 c 0,3.282 2.59,5.973 6.153,5.973 3.562,0 6.121,-2.656 6.121,-5.937 v -0.036 c 0,-3.281 -2.59,-5.968 -6.153,-5.968 -3.562,0 -6.121,2.652 -6.121,5.937"
       style="fill:#211e1e;fill-opacity:1;fill-rule:nonzero;stroke:none"
       id="path854"
       transform="matrix(0.35277777,0,0,-0.35277777,54.362747,106.76753)" />
    <path
       d="m 171.73,40.383 h 8.793 v -2.309 h -6.253 v -2.457 h 5.511 v -2.308 h -5.511 v -4.473 h -2.54 z"
       style="fill:#211e1e;fill-opacity:1;fill-rule:nonzero;stroke:none"
       id="path856"
       transform="matrix(0.35277777,0,0,-0.35277777,54.362747,106.76753)" />
    <path
       d="m 186.992,34.578 v 0.031 c 0,3.282 2.473,5.973 6.02,5.973 2.176,0 3.48,-0.727 4.55,-1.781 l -1.613,-1.863 c -0.89,0.804 -1.801,1.3 -2.953,1.3 -1.945,0 -3.348,-1.617 -3.348,-3.593 v -0.036 c 0,-1.98 1.368,-3.629 3.348,-3.629 1.32,0 2.129,0.528 3.035,1.352 l 1.617,-1.633 c -1.187,-1.269 -2.507,-2.058 -4.734,-2.058 -3.398,0 -5.922,2.621 -5.922,5.937"
       style="fill:#211e1e;fill-opacity:1;fill-rule:nonzero;stroke:none"
       id="path858"
       transform="matrix(0.35277777,0,0,-0.35277777,54.362747,106.76753)" />
    <path
       d="m 206.309,33.668 -1.536,3.746 -1.531,-3.746 z m -2.672,6.797 h 2.343 l 4.946,-11.629 h -2.653 l -1.058,2.59 h -4.883 l -1.055,-2.59 h -2.589 z"
       style="fill:#211e1e;fill-opacity:1;fill-rule:nonzero;stroke:none"
       id="path860"
       transform="matrix(0.35277777,0,0,-0.35277777,54.362747,106.76753)" />
    <path
       d="m 212.711,40.383 h 2.539 v -9.238 h 5.758 v -2.309 h -8.297 z"
       style="fill:#211e1e;fill-opacity:1;fill-rule:nonzero;stroke:none"
       id="path862"
       transform="matrix(0.35277777,0,0,-0.35277777,54.362747,106.76753)" />
    <path
       d="m 221.75,34.578 v 0.031 c 0,3.282 2.559,5.973 6.055,5.973 2.078,0 3.332,-0.562 4.535,-1.586 l -1.598,-1.93 c -0.89,0.743 -1.683,1.172 -3.019,1.172 -1.848,0 -3.317,-1.633 -3.317,-3.593 v -0.036 c 0,-2.113 1.453,-3.66 3.5,-3.66 0.922,0 1.746,0.231 2.391,0.692 v 1.648 h -2.559 v 2.195 h 5.016 v -5.015 c -1.188,-1.004 -2.82,-1.828 -4.934,-1.828 -3.593,0 -6.07,2.519 -6.07,5.937"
       style="fill:#211e1e;fill-opacity:1;fill-rule:nonzero;stroke:none"
       id="path864"
       transform="matrix(0.35277777,0,0,-0.35277777,54.362747,106.76753)" />
    <path
       d="m 241.828,33.668 -1.535,3.746 -1.531,-3.746 z m -2.672,6.797 h 2.344 l 4.945,-11.629 h -2.652 l -1.059,2.59 h -4.882 l -1.055,-2.59 h -2.59 z"
       style="fill:#211e1e;fill-opacity:1;fill-rule:nonzero;stroke:none"
       id="path866"
       transform="matrix(0.35277777,0,0,-0.35277777,54.362747,106.76753)" />
    <path
       d="m 253.344,34.773 c 1.238,0 1.945,0.661 1.945,1.633 v 0.035 c 0,1.09 -0.758,1.649 -1.996,1.649 h -2.523 v -3.317 z m -5.114,5.61 h 5.278 c 1.469,0 2.609,-0.414 3.367,-1.172 0.641,-0.641 0.988,-1.551 0.988,-2.637 v -0.035 c 0,-1.863 -1.008,-3.035 -2.472,-3.578 l 2.82,-4.125 h -2.969 l -2.476,3.695 h -1.996 v -3.695 h -2.54 z"
       style="fill:#211e1e;fill-opacity:1;fill-rule:nonzero;stroke:none"
       id="path868"
       transform="matrix(0.35277777,0,0,-0.35277777,54.362747,106.76753)" />
    <path
       d="m 262.996,33.391 -4.437,6.992 h 2.968 l 2.754,-4.637 2.805,4.637 h 2.887 l -4.438,-6.945 v -4.602 h -2.539 z"
       style="fill:#211e1e;fill-opacity:1;fill-rule:nonzero;stroke:none"
       id="path870"
       transform="matrix(0.35277777,0,0,-0.35277777,54.362747,106.76753)" />
    <path
       d="m 50.582,21.742 h -3.488 v 1.082 h 8.164 V 21.742 H 51.77 v -9.308 h -1.188 z"
       style="fill:#211e1e;fill-opacity:1;fill-rule:nonzero;stroke:none"
       id="path872"
       transform="matrix(0.35277777,0,0,-0.35277777,54.362747,106.76753)" />
    <path
       d="m 60.453,15.254 v 0.742 c -0.562,0.164 -1.32,0.324 -2.254,0.324 -1.441,0 -2.242,-0.621 -2.242,-1.586 v -0.031 c 0,-0.965 0.891,-1.531 1.93,-1.531 1.41,0 2.566,0.863 2.566,2.082 M 54.797,14.66 v 0.028 c 0,1.617 1.34,2.48 3.281,2.48 0.981,0 1.68,-0.133 2.363,-0.328 v 0.269 c 0,1.379 -0.847,2.094 -2.289,2.094 -0.902,0 -1.617,-0.238 -2.328,-0.566 l -0.344,0.937 c 0.848,0.387 1.68,0.637 2.793,0.637 1.082,0 1.915,-0.281 2.481,-0.844 0.516,-0.523 0.785,-1.265 0.785,-2.242 V 12.43 h -1.098 v 1.16 c -0.535,-0.699 -1.425,-1.32 -2.777,-1.32 -1.426,0 -2.867,0.816 -2.867,2.39"
       style="fill:#211e1e;fill-opacity:1;fill-rule:nonzero;stroke:none"
       id="path874"
       transform="matrix(0.35277777,0,0,-0.35277777,54.362747,106.76753)" />
    <path
       d="m 69.422,20.109 h 1.219 L 67.418,12.18 c -0.652,-1.59 -1.395,-2.168 -2.551,-2.168 -0.64,0 -1.113,0.133 -1.637,0.386 l 0.387,0.907 c 0.371,-0.196 0.715,-0.285 1.203,-0.285 0.684,0 1.114,0.359 1.575,1.441 l -3.489,7.648 h 1.262 l 2.793,-6.402 z"
       style="fill:#211e1e;fill-opacity:1;fill-rule:nonzero;stroke:none"
       id="path876"
       transform="matrix(0.35277777,0,0,-0.35277777,54.362747,106.76753)" />
    <path
       d="M 72.555,23.27 H 73.7 V 12.434 h -1.145 z"
       style="fill:#211e1e;fill-opacity:1;fill-rule:nonzero;stroke:none"
       id="path878"
       transform="matrix(0.35277777,0,0,-0.35277777,54.362747,106.76753)" />
    <path
       d="m 82.711,16.234 v 0.028 c 0,1.648 -1.231,3 -2.852,3 -1.66,0 -2.804,-1.352 -2.804,-2.969 v -0.031 c 0,-1.649 1.218,-2.985 2.836,-2.985 1.664,0 2.82,1.336 2.82,2.957 m -6.828,0 v 0.028 c 0,2.168 1.691,4.008 4.008,4.008 2.3,0 3.996,-1.809 3.996,-3.977 v -0.031 c 0,-2.168 -1.711,-4.008 -4.028,-4.008 -2.3,0 -3.976,1.812 -3.976,3.98"
       style="fill:#211e1e;fill-opacity:1;fill-rule:nonzero;stroke:none"
       id="path880"
       transform="matrix(0.35277777,0,0,-0.35277777,54.362747,106.76753)" />
    <path
       d="m 85.949,20.109 h 1.145 v -2.007 c 0.562,1.277 1.676,2.199 3.133,2.14 v -1.234 h -0.09 c -1.68,0 -3.043,-1.203 -3.043,-3.516 V 12.43 h -1.145 z"
       style="fill:#211e1e;fill-opacity:1;fill-rule:nonzero;stroke:none"
       id="path882"
       transform="matrix(0.35277777,0,0,-0.35277777,54.362747,106.76753)" />
    <path
       d="m 96.715,22.824 h 1.172 V 12.429 h -1.172 z"
       style="fill:#211e1e;fill-opacity:1;fill-rule:nonzero;stroke:none"
       id="path884"
       transform="matrix(0.35277777,0,0,-0.35277777,54.362747,106.76753)" />
    <path
       d="m 100.738,20.109 h 1.141 V 18.77 c 0.508,0.832 1.309,1.5 2.629,1.5 1.855,0 2.941,-1.247 2.941,-3.071 V 12.43 h -1.144 v 4.484 c 0,1.426 -0.774,2.316 -2.121,2.316 -1.325,0 -2.305,-0.964 -2.305,-2.402 V 12.43 h -1.141 z"
       style="fill:#211e1e;fill-opacity:1;fill-rule:nonzero;stroke:none"
       id="path886"
       transform="matrix(0.35277777,0,0,-0.35277777,54.362747,106.76753)" />
    <path
       d="m 109.246,13.41 0.578,0.817 c 0.832,-0.622 1.75,-0.981 2.656,-0.981 0.922,0 1.59,0.477 1.59,1.219 v 0.031 c 0,0.774 -0.906,1.07 -1.914,1.352 -1.203,0.34 -2.539,0.757 -2.539,2.168 v 0.027 c 0,1.324 1.098,2.199 2.613,2.199 0.934,0 1.973,-0.328 2.762,-0.847 l -0.519,-0.86 c -0.715,0.461 -1.532,0.742 -2.274,0.742 -0.906,0 -1.484,-0.476 -1.484,-1.113 v -0.031 c 0,-0.727 0.949,-1.012 1.976,-1.321 1.188,-0.359 2.461,-0.816 2.461,-2.199 v -0.027 c 0,-1.457 -1.199,-2.301 -2.73,-2.301 -1.098,0 -2.317,0.43 -3.176,1.125"
       style="fill:#211e1e;fill-opacity:1;fill-rule:nonzero;stroke:none"
       id="path888"
       transform="matrix(0.35277777,0,0,-0.35277777,54.362747,106.76753)" />
    <path
       d="m 117.531,14.465 v 4.633 h -1.07 v 1.011 h 1.07 v 2.317 h 1.141 v -2.317 h 2.437 v -1.011 h -2.437 v -4.485 c 0,-0.933 0.523,-1.277 1.293,-1.277 0.387,0 0.715,0.074 1.113,0.269 v -0.98 c -0.398,-0.207 -0.832,-0.328 -1.379,-0.328 -1.234,0 -2.168,0.609 -2.168,2.168"
       style="fill:#211e1e;fill-opacity:1;fill-rule:nonzero;stroke:none"
       id="path890"
       transform="matrix(0.35277777,0,0,-0.35277777,54.362747,106.76753)" />
    <path
       d="m 123.234,20.109 h 1.141 v -7.675 h -1.141 z m -0.074,2.938 h 1.305 v -1.262 h -1.305 z"
       style="fill:#211e1e;fill-opacity:1;fill-rule:nonzero;stroke:none"
       id="path892"
       transform="matrix(0.35277777,0,0,-0.35277777,54.362747,106.76753)" />
    <path
       d="m 127.434,14.465 v 4.633 h -1.071 v 1.011 h 1.071 v 2.317 h 1.144 v -2.317 h 2.434 v -1.011 h -2.434 v -4.485 c 0,-0.933 0.52,-1.277 1.289,-1.277 0.387,0 0.715,0.074 1.113,0.269 v -0.98 c -0.398,-0.207 -0.828,-0.328 -1.378,-0.328 -1.235,0 -2.168,0.609 -2.168,2.168"
       style="fill:#211e1e;fill-opacity:1;fill-rule:nonzero;stroke:none"
       id="path894"
       transform="matrix(0.35277777,0,0,-0.35277777,54.362747,106.76753)" />
    <path
       d="m 132.914,15.34 v 4.769 h 1.141 v -4.484 c 0,-1.426 0.773,-2.316 2.125,-2.316 1.304,0 2.3,0.964 2.3,2.402 v 4.398 h 1.129 v -7.675 h -1.129 v 1.336 c -0.519,-0.832 -1.304,-1.5 -2.628,-1.5 -1.856,0 -2.938,1.246 -2.938,3.07"
       style="fill:#211e1e;fill-opacity:1;fill-rule:nonzero;stroke:none"
       id="path896"
       transform="matrix(0.35277777,0,0,-0.35277777,54.362747,106.76753)" />
    <path
       d="m 142.578,14.465 v 4.633 h -1.07 v 1.011 h 1.07 v 2.317 h 1.145 v -2.317 h 2.433 v -1.011 h -2.433 v -4.485 c 0,-0.933 0.519,-1.277 1.289,-1.277 0.386,0 0.715,0.074 1.113,0.269 v -0.98 c -0.398,-0.207 -0.828,-0.328 -1.379,-0.328 -1.234,0 -2.168,0.609 -2.168,2.168"
       style="fill:#211e1e;fill-opacity:1;fill-rule:nonzero;stroke:none"
       id="path898"
       transform="matrix(0.35277777,0,0,-0.35277777,54.362747,106.76753)" />
    <path
       d="m 153.582,16.691 c -0.121,1.399 -0.922,2.614 -2.453,2.614 -1.336,0 -2.344,-1.114 -2.492,-2.614 z m -6.102,-0.445 v 0.031 c 0,2.211 1.559,3.993 3.68,3.993 2.274,0 3.578,-1.809 3.578,-4.051 0,-0.149 0,-0.239 -0.015,-0.371 h -6.086 c 0.164,-1.664 1.336,-2.602 2.703,-2.602 1.051,0 1.797,0.434 2.418,1.086 l 0.715,-0.637 c -0.774,-0.863 -1.707,-1.441 -3.164,-1.441 -2.11,0 -3.829,1.617 -3.829,3.992"
       style="fill:#211e1e;fill-opacity:1;fill-rule:nonzero;stroke:none"
       id="path900"
       transform="matrix(0.35277777,0,0,-0.35277777,54.362747,106.76753)" />
    <path
       d="m 161.629,19.098 h -1.055 v 0.996 h 1.055 v 0.668 c 0,0.875 0.238,1.543 0.668,1.972 0.387,0.387 0.949,0.594 1.648,0.594 0.535,0 0.891,-0.058 1.262,-0.191 v -0.996 c -0.418,0.121 -0.727,0.195 -1.113,0.195 -0.891,0 -1.336,-0.535 -1.336,-1.633 v -0.625 h 2.433 v -0.98 h -2.421 v -6.664 h -1.141 z"
       style="fill:#211e1e;fill-opacity:1;fill-rule:nonzero;stroke:none"
       id="path902"
       transform="matrix(0.35277777,0,0,-0.35277777,54.362747,106.76753)" />
    <path
       d="m 172.852,16.234 v 0.028 c 0,1.648 -1.231,3 -2.848,3 -1.664,0 -2.809,-1.352 -2.809,-2.969 v -0.031 c 0,-1.649 1.219,-2.985 2.836,-2.985 1.664,0 2.821,1.336 2.821,2.957 m -6.829,0 v 0.028 c 0,2.168 1.692,4.008 4.008,4.008 2.301,0 3.996,-1.809 3.996,-3.977 v -0.031 c 0,-2.168 -1.711,-4.008 -4.023,-4.008 -2.305,0 -3.981,1.812 -3.981,3.98"
       style="fill:#211e1e;fill-opacity:1;fill-rule:nonzero;stroke:none"
       id="path904"
       transform="matrix(0.35277777,0,0,-0.35277777,54.362747,106.76753)" />
    <path
       d="m 176.09,20.109 h 1.144 v -2.007 c 0.563,1.277 1.676,2.199 3.133,2.14 v -1.234 h -0.09 c -1.679,0 -3.043,-1.203 -3.043,-3.516 V 12.43 h -1.144 z"
       style="fill:#211e1e;fill-opacity:1;fill-rule:nonzero;stroke:none"
       id="path906"
       transform="matrix(0.35277777,0,0,-0.35277777,54.362747,106.76753)" />
    <path
       d="m 189.496,21.742 h -3.488 v 1.082 h 8.168 v -1.082 h -3.488 v -9.308 h -1.192 z"
       style="fill:#211e1e;fill-opacity:1;fill-rule:nonzero;stroke:none"
       id="path908"
       transform="matrix(0.35277777,0,0,-0.35277777,54.362747,106.76753)" />
    <path
       d="m 199.922,16.691 c -0.121,1.399 -0.922,2.614 -2.449,2.614 -1.336,0 -2.348,-1.114 -2.496,-2.614 z m -6.102,-0.445 v 0.031 c 0,2.211 1.559,3.993 3.68,3.993 2.273,0 3.578,-1.809 3.578,-4.051 0,-0.149 0,-0.239 -0.016,-0.371 h -6.085 c 0.164,-1.664 1.335,-2.602 2.703,-2.602 1.054,0 1.797,0.434 2.418,1.086 l 0.714,-0.637 c -0.773,-0.863 -1.707,-1.441 -3.164,-1.441 -2.109,0 -3.828,1.617 -3.828,3.992"
       style="fill:#211e1e;fill-opacity:1;fill-rule:nonzero;stroke:none"
       id="path910"
       transform="matrix(0.35277777,0,0,-0.35277777,54.362747,106.76753)" />
    <path
       d="m 208.16,15.254 v 0.742 c -0.562,0.164 -1.32,0.324 -2.254,0.324 -1.441,0 -2.242,-0.621 -2.242,-1.586 v -0.031 c 0,-0.965 0.891,-1.531 1.93,-1.531 1.41,0 2.566,0.863 2.566,2.082 m -5.656,-0.594 v 0.028 c 0,1.617 1.336,2.48 3.281,2.48 0.981,0 1.68,-0.133 2.363,-0.328 v 0.269 c 0,1.379 -0.847,2.094 -2.289,2.094 -0.906,0 -1.617,-0.238 -2.328,-0.566 l -0.343,0.937 c 0.847,0.387 1.679,0.637 2.792,0.637 1.082,0 1.915,-0.281 2.477,-0.844 0.52,-0.523 0.789,-1.265 0.789,-2.242 V 12.43 h -1.098 v 1.16 c -0.535,-0.699 -1.425,-1.32 -2.777,-1.32 -1.426,0 -2.867,0.816 -2.867,2.39"
       style="fill:#211e1e;fill-opacity:1;fill-rule:nonzero;stroke:none"
       id="path912"
       transform="matrix(0.35277777,0,0,-0.35277777,54.362747,106.76753)" />
    <path
       d="m 211.207,16.234 v 0.028 c 0,2.168 1.691,4.008 3.934,4.008 1.453,0 2.359,-0.606 3.074,-1.364 l -0.758,-0.804 c -0.609,0.64 -1.293,1.16 -2.332,1.16 -1.559,0 -2.746,-1.321 -2.746,-2.969 v -0.031 c 0,-1.664 1.219,-2.985 2.82,-2.985 0.981,0 1.739,0.493 2.348,1.145 l 0.726,-0.684 c -0.773,-0.859 -1.691,-1.484 -3.132,-1.484 -2.243,0 -3.934,1.824 -3.934,3.98"
       style="fill:#211e1e;fill-opacity:1;fill-rule:nonzero;stroke:none"
       id="path914"
       transform="matrix(0.35277777,0,0,-0.35277777,54.362747,106.76753)" />
    <path
       d="m 220.16,23.27 h 1.141 v -4.5 c 0.508,0.832 1.308,1.5 2.629,1.5 1.855,0 2.941,-1.247 2.941,-3.075 v -4.761 h -1.144 v 4.484 c 0,1.422 -0.774,2.312 -2.125,2.312 -1.321,0 -2.301,-0.964 -2.301,-2.406 v -4.39 h -1.141 z"
       style="fill:#211e1e;fill-opacity:1;fill-rule:nonzero;stroke:none"
       id="path916"
       transform="matrix(0.35277777,0,0,-0.35277777,54.362747,106.76753)" />
    <path
       d="m 229.41,20.109 h 1.141 v -7.675 h -1.141 z m -0.074,2.938 h 1.305 v -1.262 h -1.305 z"
       style="fill:#211e1e;fill-opacity:1;fill-rule:nonzero;stroke:none"
       id="path918"
       transform="matrix(0.35277777,0,0,-0.35277777,54.362747,106.76753)" />
    <path
       d="m 233.211,20.109 h 1.141 V 18.77 c 0.507,0.832 1.308,1.5 2.628,1.5 1.856,0 2.942,-1.247 2.942,-3.071 V 12.43 h -1.145 v 4.484 c 0,1.426 -0.773,2.316 -2.121,2.316 -1.324,0 -2.304,-0.964 -2.304,-2.402 V 12.43 h -1.141 z"
       style="fill:#211e1e;fill-opacity:1;fill-rule:nonzero;stroke:none"
       id="path920"
       transform="matrix(0.35277777,0,0,-0.35277777,54.362747,106.76753)" />
    <path
       d="m 248.562,16.633 v 0.031 c 0,1.574 -1.367,2.598 -2.82,2.598 -1.457,0 -2.66,-1.012 -2.66,-2.586 v -0.028 c 0,-1.543 1.234,-2.613 2.66,-2.613 1.453,0 2.82,1.055 2.82,2.598 m -6.292,-5.539 0.519,0.89 c 0.875,-0.636 1.856,-0.976 2.953,-0.976 1.692,0 2.789,0.933 2.789,2.73 v 0.907 c -0.668,-0.891 -1.601,-1.622 -3.011,-1.622 -1.84,0 -3.61,1.383 -3.61,3.594 v 0.031 c 0,2.243 1.781,3.622 3.61,3.622 1.437,0 2.375,-0.711 3,-1.543 v 1.378 h 1.14 V 13.77 c 0,-1.188 -0.355,-2.094 -0.976,-2.719 -0.684,-0.684 -1.711,-1.024 -2.926,-1.024 -1.278,0 -2.465,0.356 -3.488,1.067"
       style="fill:#211e1e;fill-opacity:1;fill-rule:nonzero;stroke:none"
       id="path922"
       transform="matrix(0.35277777,0,0,-0.35277777,54.362747,106.76753)" />
    <path
       d="m 261.746,15.254 v 0.742 c -0.562,0.164 -1.32,0.324 -2.254,0.324 -1.441,0 -2.242,-0.621 -2.242,-1.586 v -0.031 c 0,-0.965 0.891,-1.531 1.93,-1.531 1.41,0 2.566,0.863 2.566,2.082 M 256.09,14.66 v 0.028 c 0,1.617 1.336,2.48 3.281,2.48 0.981,0 1.68,-0.133 2.363,-0.328 v 0.269 c 0,1.379 -0.847,2.094 -2.289,2.094 -0.906,0 -1.617,-0.238 -2.328,-0.566 l -0.344,0.937 c 0.848,0.387 1.68,0.637 2.793,0.637 1.082,0 1.914,-0.281 2.477,-0.844 0.519,-0.523 0.789,-1.265 0.789,-2.242 V 12.43 h -1.098 v 1.16 c -0.535,-0.699 -1.425,-1.32 -2.777,-1.32 -1.426,0 -2.867,0.816 -2.867,2.39"
       style="fill:#211e1e;fill-opacity:1;fill-rule:nonzero;stroke:none"
       id="path924"
       transform="matrix(0.35277777,0,0,-0.35277777,54.362747,106.76753)" />
    <path
       d="m 265.266,20.109 h 1.144 V 18.77 c 0.504,0.832 1.309,1.5 2.629,1.5 1.856,0 2.938,-1.247 2.938,-3.071 V 12.43 h -1.141 v 4.484 c 0,1.426 -0.774,2.316 -2.125,2.316 -1.32,0 -2.301,-0.964 -2.301,-2.402 V 12.43 h -1.144 z"
       style="fill:#211e1e;fill-opacity:1;fill-rule:nonzero;stroke:none"
       id="path926"
       transform="matrix(0.35277777,0,0,-0.35277777,54.362747,106.76753)" />
    <path
       d="m 280.621,16.262 v 0.031 c 0,1.766 -1.351,2.953 -2.777,2.953 -1.485,0 -2.703,-1.098 -2.703,-2.953 v -0.031 c 0,-1.813 1.261,-2.969 2.703,-2.969 1.426,0 2.777,1.203 2.777,2.969 m -6.652,-0.016 v 0.031 c 0,2.508 1.824,3.993 3.668,3.993 1.425,0 2.343,-0.77 2.937,-1.633 v 4.633 h 1.145 V 12.43 h -1.145 v 1.547 c -0.621,-0.922 -1.527,-1.707 -2.937,-1.707 -1.844,0 -3.668,1.453 -3.668,3.976"
       style="fill:#211e1e;fill-opacity:1;fill-rule:nonzero;stroke:none"
       id="path928"
       transform="matrix(0.35277777,0,0,-0.35277777,54.362747,106.76753)" />
    <path
       d="m 288.918,22.824 h 1.176 v -9.308 h 5.847 V 12.43 h -7.023 z"
       style="fill:#211e1e;fill-opacity:1;fill-rule:nonzero;stroke:none"
       id="path930"
       transform="matrix(0.35277777,0,0,-0.35277777,54.362747,106.76753)" />
    <path
       d="m 303.395,16.691 c -0.118,1.399 -0.918,2.614 -2.45,2.614 -1.336,0 -2.343,-1.114 -2.492,-2.614 z m -6.102,-0.445 v 0.031 c 0,2.211 1.559,3.993 3.684,3.993 2.269,0 3.578,-1.809 3.578,-4.051 0,-0.149 0,-0.239 -0.016,-0.371 h -6.086 c 0.164,-1.664 1.336,-2.602 2.703,-2.602 1.051,0 1.793,0.434 2.418,1.086 l 0.715,-0.637 c -0.773,-0.863 -1.711,-1.441 -3.164,-1.441 -2.109,0 -3.832,1.617 -3.832,3.992"
       style="fill:#211e1e;fill-opacity:1;fill-rule:nonzero;stroke:none"
       id="path932"
       transform="matrix(0.35277777,0,0,-0.35277777,54.362747,106.76753)" />
    <path
       d="m 311.637,15.254 v 0.742 c -0.563,0.164 -1.321,0.324 -2.258,0.324 -1.438,0 -2.242,-0.621 -2.242,-1.586 v -0.031 c 0,-0.965 0.894,-1.531 1.933,-1.531 1.41,0 2.567,0.863 2.567,2.082 M 305.98,14.66 v 0.028 c 0,1.617 1.336,2.48 3.282,2.48 0.98,0 1.676,-0.133 2.359,-0.328 v 0.269 c 0,1.379 -0.844,2.094 -2.285,2.094 -0.906,0 -1.621,-0.238 -2.332,-0.566 l -0.34,0.937 c 0.844,0.387 1.676,0.637 2.789,0.637 1.086,0 1.914,-0.281 2.481,-0.844 0.519,-0.523 0.789,-1.265 0.789,-2.242 V 12.43 h -1.102 v 1.16 c -0.535,-0.699 -1.426,-1.32 -2.773,-1.32 -1.43,0 -2.868,0.816 -2.868,2.39"
       style="fill:#211e1e;fill-opacity:1;fill-rule:nonzero;stroke:none"
       id="path934"
       transform="matrix(0.35277777,0,0,-0.35277777,54.362747,106.76753)" />
    <path
       d="m 315.156,20.109 h 1.145 v -2.007 c 0.562,1.277 1.676,2.199 3.129,2.14 v -1.234 h -0.086 c -1.68,0 -3.043,-1.203 -3.043,-3.516 V 12.43 h -1.145 z"
       style="fill:#211e1e;fill-opacity:1;fill-rule:nonzero;stroke:none"
       id="path936"
       transform="matrix(0.35277777,0,0,-0.35277777,54.362747,106.76753)" />
    <path
       d="m 321.168,20.109 h 1.144 V 18.77 c 0.504,0.832 1.305,1.5 2.629,1.5 1.856,0 2.938,-1.247 2.938,-3.071 V 12.43 h -1.141 v 4.484 c 0,1.426 -0.773,2.316 -2.125,2.316 -1.32,0 -2.301,-0.964 -2.301,-2.402 V 12.43 h -1.144 z"
       style="fill:#211e1e;fill-opacity:1;fill-rule:nonzero;stroke:none"
       id="path938"
       transform="matrix(0.35277777,0,0,-0.35277777,54.362747,106.76753)" />
    <path
       d="m 330.418,20.109 h 1.144 v -7.675 h -1.144 z m -0.074,2.938 h 1.308 v -1.262 h -1.308 z"
       style="fill:#211e1e;fill-opacity:1;fill-rule:nonzero;stroke:none"
       id="path940"
       transform="matrix(0.35277777,0,0,-0.35277777,54.362747,106.76753)" />
    <path
       d="m 334.219,20.109 h 1.144 V 18.77 c 0.504,0.832 1.305,1.5 2.629,1.5 1.856,0 2.938,-1.247 2.938,-3.071 V 12.43 h -1.141 v 4.484 c 0,1.426 -0.773,2.316 -2.125,2.316 -1.32,0 -2.301,-0.964 -2.301,-2.402 V 12.43 h -1.144 z"
       style="fill:#211e1e;fill-opacity:1;fill-rule:nonzero;stroke:none"
       id="path942"
       transform="matrix(0.35277777,0,0,-0.35277777,54.362747,106.76753)" />
    <path
       d="m 349.57,16.633 v 0.031 c 0,1.574 -1.363,2.598 -2.816,2.598 -1.457,0 -2.66,-1.012 -2.66,-2.586 v -0.028 c 0,-1.543 1.234,-2.613 2.66,-2.613 1.453,0 2.816,1.055 2.816,2.598 m -6.293,-5.539 0.52,0.89 c 0.875,-0.636 1.855,-0.976 2.957,-0.976 1.691,0 2.789,0.933 2.789,2.73 v 0.907 c -0.668,-0.891 -1.605,-1.622 -3.016,-1.622 -1.839,0 -3.605,1.383 -3.605,3.594 v 0.031 c 0,2.243 1.781,3.622 3.605,3.622 1.442,0 2.375,-0.711 3,-1.543 v 1.378 h 1.145 V 13.77 c 0,-1.188 -0.356,-2.094 -0.981,-2.719 -0.683,-0.684 -1.707,-1.024 -2.925,-1.024 -1.274,0 -2.465,0.356 -3.489,1.067"
       style="fill:#211e1e;fill-opacity:1;fill-rule:nonzero;stroke:none"
       id="path944"
       transform="matrix(0.35277777,0,0,-0.35277777,54.362747,106.76753)" />
  </g>
</svg>
