<?xml version="1.0" encoding="UTF-8" standalone="no"?>
<!-- Created with Inkscape (http://www.inkscape.org/) -->

<svg
   width="123.64719mm"
   height="16.799631mm"
   viewBox="0 0 123.64719 16.799631"
   version="1.1"
   id="svg5"
   inkscape:version="1.1.2 (0a00cf5339, 2022-02-04)"
   sodipodi:docname="ti-screen.svg"
   xmlns:inkscape="http://www.inkscape.org/namespaces/inkscape"
   xmlns:sodipodi="http://sodipodi.sourceforge.net/DTD/sodipodi-0.dtd"
   xmlns="http://www.w3.org/2000/svg"
   xmlns:svg="http://www.w3.org/2000/svg">
  <sodipodi:namedview
     id="namedview7"
     pagecolor="#ffffff"
     bordercolor="#666666"
     borderopacity="1.0"
     inkscape:pageshadow="2"
     inkscape:pageopacity="0.0"
     inkscape:pagecheckerboard="0"
     inkscape:document-units="mm"
     showgrid="false"
     fit-margin-top="0"
     fit-margin-left="0"
     fit-margin-right="0"
     fit-margin-bottom="0"
     inkscape:zoom="2.5415144"
     inkscape:cx="98.169817"
     inkscape:cy="86.365831"
     inkscape:window-width="1856"
     inkscape:window-height="1016"
     inkscape:window-x="0"
     inkscape:window-y="0"
     inkscape:window-maximized="1"
     inkscape:current-layer="layer3" />
  <defs
     id="defs2" />
  <g
     inkscape:groupmode="layer"
     id="layer3"
     inkscape:label="vec"
     style="display:inline"
     transform="translate(-17.933435,-100.98126)">
    <path
       d="m 47.395,40.59 v 6.598 h 2.539 v -6.532 c 0,-1.879 0.941,-2.851 2.488,-2.851 1.551,0 2.492,0.937 2.492,2.769 v 6.614 h 2.543 v -6.516 c 0,-3.496 -1.965,-5.211 -5.066,-5.211 -3.102,0 -4.996,1.73 -4.996,5.129"
       style="fill:#211e1e;fill-opacity:1;fill-rule:nonzero;stroke:none"
       id="path834"
       transform="matrix(0.35277777,0,0,-0.35277777,17.933435,119.98998)" />
    <path
       d="m 60.047,47.188 h 2.344 l 5.41,-7.11 v 7.11 h 2.508 V 35.641 h -2.164 l -5.59,7.343 v -7.343 h -2.508 v 11.547"
       style="fill:#211e1e;fill-opacity:1;fill-rule:nonzero;stroke:none"
       id="path836"
       transform="matrix(0.35277777,0,0,-0.35277777,17.933435,119.98998)" />
    <path
       d="m 73.195,47.188 h 2.539 V 35.641 h -2.539 z"
       style="fill:#211e1e;fill-opacity:1;fill-rule:nonzero;stroke:none"
       id="path838"
       transform="matrix(0.35277777,0,0,-0.35277777,17.933435,119.98998)" />
    <path
       d="m 77.633,47.188 h 2.805 l 3.019,-8.129 3.016,8.129 h 2.738 L 84.543,35.559 h -2.242 l -4.668,11.629"
       style="fill:#211e1e;fill-opacity:1;fill-rule:nonzero;stroke:none"
       id="path840"
       transform="matrix(0.35277777,0,0,-0.35277777,17.933435,119.98998)" />
    <path
       d="m 90.996,47.188 h 8.711 V 44.93 H 93.52 v -2.344 h 5.445 V 40.328 H 93.52 v -2.426 h 6.269 v -2.261 h -8.793 v 11.547"
       style="fill:#211e1e;fill-opacity:1;fill-rule:nonzero;stroke:none"
       id="path842"
       transform="matrix(0.35277777,0,0,-0.35277777,17.933435,119.98998)" />
    <path
       d="m 107.164,41.582 c 1.238,0 1.945,0.66 1.945,1.633 v 0.031 c 0,1.09 -0.757,1.649 -1.996,1.649 h -2.523 v -3.313 z m -5.113,5.606 h 5.277 c 1.469,0 2.606,-0.411 3.367,-1.172 0.641,-0.641 0.989,-1.547 0.989,-2.637 v -0.035 c 0,-1.864 -1.008,-3.035 -2.477,-3.578 l 2.824,-4.125 h -2.969 l -2.476,3.695 h -1.996 v -3.695 h -2.539 v 11.547"
       style="fill:#211e1e;fill-opacity:1;fill-rule:nonzero;stroke:none"
       id="path844"
       transform="matrix(0.35277777,0,0,-0.35277777,17.933435,119.98998)" />
    <path
       d="m 113.188,37.324 1.5,1.797 c 1.039,-0.855 2.128,-1.402 3.449,-1.402 1.039,0 1.664,0.414 1.664,1.09 v 0.035 c 0,0.64 -0.395,0.972 -2.324,1.465 -2.329,0.593 -3.829,1.238 -3.829,3.531 v 0.035 c 0,2.094 1.684,3.48 4.043,3.48 1.68,0 3.118,-0.531 4.289,-1.468 l -1.32,-1.914 c -1.023,0.707 -2.031,1.136 -3.004,1.136 -0.972,0 -1.484,-0.445 -1.484,-1.004 V 44.07 c 0,-0.758 0.496,-1.004 2.492,-1.515 2.34,-0.614 3.66,-1.453 3.66,-3.465 v -0.031 c 0,-2.293 -1.75,-3.582 -4.238,-3.582 -1.75,0 -3.516,0.609 -4.898,1.847"
       style="fill:#211e1e;fill-opacity:1;fill-rule:nonzero;stroke:none"
       id="path846"
       transform="matrix(0.35277777,0,0,-0.35277777,17.933435,119.98998)" />
    <path
       d="m 124.652,47.188 h 2.539 V 35.641 h -2.539 z"
       style="fill:#211e1e;fill-opacity:1;fill-rule:nonzero;stroke:none"
       id="path848"
       transform="matrix(0.35277777,0,0,-0.35277777,17.933435,119.98998)" />
    <path
       d="m 132.77,44.848 h -3.516 v 2.34 h 9.566 v -2.34 h -3.511 v -9.207 h -2.539 v 9.207"
       style="fill:#211e1e;fill-opacity:1;fill-rule:nonzero;stroke:none"
       id="path850"
       transform="matrix(0.35277777,0,0,-0.35277777,17.933435,119.98998)" />
    <path
       d="m 144.02,40.195 -4.438,6.993 h 2.969 l 2.758,-4.633 2.8,4.633 h 2.887 l -4.434,-6.942 v -4.605 h -2.542 v 4.554"
       style="fill:#211e1e;fill-opacity:1;fill-rule:nonzero;stroke:none"
       id="path852"
       transform="matrix(0.35277777,0,0,-0.35277777,17.933435,119.98998)" />
    <path
       d="m 166.637,41.383 v 0.031 c 0,1.981 -1.449,3.629 -3.496,3.629 -2.047,0 -3.465,-1.613 -3.465,-3.594 v -0.035 c 0,-1.976 1.453,-3.629 3.496,-3.629 2.047,0 3.465,1.617 3.465,3.598 z m -9.617,0 v 0.031 c 0,3.285 2.589,5.973 6.152,5.973 3.566,0 6.121,-2.657 6.121,-5.938 v -0.035 c 0,-3.281 -2.59,-5.969 -6.152,-5.969 -3.563,0 -6.121,2.657 -6.121,5.938"
       style="fill:#211e1e;fill-opacity:1;fill-rule:nonzero;stroke:none"
       id="path854"
       transform="matrix(0.35277777,0,0,-0.35277777,17.933435,119.98998)" />
    <path
       d="m 171.555,47.188 h 8.793 v -2.309 h -6.254 v -2.457 h 5.511 v -2.309 h -5.511 v -4.472 h -2.539 v 11.547"
       style="fill:#211e1e;fill-opacity:1;fill-rule:nonzero;stroke:none"
       id="path856"
       transform="matrix(0.35277777,0,0,-0.35277777,17.933435,119.98998)" />
    <path
       d="m 186.816,41.383 v 0.031 c 0,3.285 2.473,5.973 6.02,5.973 2.18,0 3.48,-0.727 4.555,-1.782 l -1.618,-1.863 c -0.89,0.809 -1.8,1.301 -2.953,1.301 -1.945,0 -3.347,-1.613 -3.347,-3.594 v -0.035 c 0,-1.976 1.367,-3.629 3.347,-3.629 1.321,0 2.129,0.531 3.035,1.356 l 1.618,-1.633 c -1.188,-1.274 -2.508,-2.063 -4.735,-2.063 -3.398,0 -5.922,2.621 -5.922,5.938"
       style="fill:#211e1e;fill-opacity:1;fill-rule:nonzero;stroke:none"
       id="path858"
       transform="matrix(0.35277777,0,0,-0.35277777,17.933435,119.98998)" />
    <path
       d="m 206.133,40.477 -1.535,3.742 -1.532,-3.742 z m -2.672,6.793 h 2.344 l 4.945,-11.629 h -2.652 l -1.059,2.589 h -4.883 l -1.054,-2.589 h -2.59 l 4.949,11.629"
       style="fill:#211e1e;fill-opacity:1;fill-rule:nonzero;stroke:none"
       id="path860"
       transform="matrix(0.35277777,0,0,-0.35277777,17.933435,119.98998)" />
    <path
       d="m 212.535,47.188 h 2.539 v -9.235 h 5.758 v -2.312 h -8.297 v 11.547"
       style="fill:#211e1e;fill-opacity:1;fill-rule:nonzero;stroke:none"
       id="path862"
       transform="matrix(0.35277777,0,0,-0.35277777,17.933435,119.98998)" />
    <path
       d="m 221.574,41.383 v 0.031 c 0,3.285 2.559,5.973 6.055,5.973 2.078,0 3.332,-0.563 4.535,-1.582 l -1.598,-1.93 c -0.89,0.742 -1.683,1.168 -3.019,1.168 -1.848,0 -3.317,-1.633 -3.317,-3.594 v -0.035 c 0,-2.109 1.454,-3.66 3.5,-3.66 0.922,0 1.747,0.23 2.391,0.691 v 1.653 h -2.559 v 2.191 h 5.016 v -5.016 c -1.187,-1.003 -2.82,-1.828 -4.933,-1.828 -3.594,0 -6.071,2.524 -6.071,5.938"
       style="fill:#211e1e;fill-opacity:1;fill-rule:nonzero;stroke:none"
       id="path864"
       transform="matrix(0.35277777,0,0,-0.35277777,17.933435,119.98998)" />
    <path
       d="m 241.652,40.477 -1.535,3.742 -1.531,-3.742 z m -2.672,6.793 h 2.344 l 4.946,-11.629 h -2.653 l -1.058,2.589 h -4.883 l -1.055,-2.589 h -2.59 l 4.949,11.629"
       style="fill:#211e1e;fill-opacity:1;fill-rule:nonzero;stroke:none"
       id="path866"
       transform="matrix(0.35277777,0,0,-0.35277777,17.933435,119.98998)" />
    <path
       d="m 253.168,41.582 c 1.238,0 1.945,0.66 1.945,1.633 v 0.031 c 0,1.09 -0.758,1.649 -1.996,1.649 h -2.523 v -3.313 z m -5.113,5.606 h 5.277 c 1.469,0 2.609,-0.411 3.367,-1.172 0.641,-0.641 0.989,-1.547 0.989,-2.637 v -0.035 c 0,-1.864 -1.004,-3.035 -2.473,-3.578 l 2.82,-4.125 h -2.969 l -2.476,3.695 h -1.996 v -3.695 h -2.539 v 11.547"
       style="fill:#211e1e;fill-opacity:1;fill-rule:nonzero;stroke:none"
       id="path868"
       transform="matrix(0.35277777,0,0,-0.35277777,17.933435,119.98998)" />
    <path
       d="m 262.82,40.195 -4.437,6.993 h 2.969 l 2.753,-4.633 2.805,4.633 h 2.887 l -4.438,-6.942 v -4.605 h -2.539 v 4.554"
       style="fill:#211e1e;fill-opacity:1;fill-rule:nonzero;stroke:none"
       id="path870"
       transform="matrix(0.35277777,0,0,-0.35277777,17.933435,119.98998)" />
    <path
       d="m 50.406,28.547 h -3.488 v 1.082 h 8.164 v -1.082 h -3.488 v -9.309 h -1.188 v 9.309"
       style="fill:#211e1e;fill-opacity:1;fill-rule:nonzero;stroke:none"
       id="path872"
       transform="matrix(0.35277777,0,0,-0.35277777,17.933435,119.98998)" />
    <path
       d="m 60.277,22.059 v 0.742 c -0.562,0.164 -1.32,0.328 -2.254,0.328 -1.441,0 -2.242,-0.625 -2.242,-1.59 v -0.031 c 0,-0.965 0.891,-1.528 1.93,-1.528 1.41,0 2.566,0.86 2.566,2.079 z m -5.656,-0.594 v 0.031 c 0,1.617 1.336,2.477 3.281,2.477 0.981,0 1.68,-0.133 2.364,-0.325 v 0.266 c 0,1.383 -0.848,2.094 -2.289,2.094 -0.903,0 -1.618,-0.238 -2.329,-0.563 l -0.343,0.934 c 0.847,0.387 1.679,0.637 2.793,0.637 1.082,0 1.914,-0.282 2.48,-0.844 0.516,-0.52 0.785,-1.262 0.785,-2.242 v -4.692 h -1.097 v 1.157 c -0.536,-0.696 -1.426,-1.321 -2.778,-1.321 -1.426,0 -2.867,0.817 -2.867,2.391"
       style="fill:#211e1e;fill-opacity:1;fill-rule:nonzero;stroke:none"
       id="path874"
       transform="matrix(0.35277777,0,0,-0.35277777,17.933435,119.98998)" />
    <path
       d="m 69.246,26.914 h 1.219 l -3.223,-7.93 c -0.652,-1.586 -1.394,-2.168 -2.551,-2.168 -0.64,0 -1.113,0.133 -1.632,0.387 l 0.382,0.906 c 0.371,-0.191 0.715,-0.281 1.204,-0.281 0.683,0 1.113,0.356 1.574,1.438 l -3.489,7.648 h 1.262 l 2.789,-6.398 2.465,6.398"
       style="fill:#211e1e;fill-opacity:1;fill-rule:nonzero;stroke:none"
       id="path876"
       transform="matrix(0.35277777,0,0,-0.35277777,17.933435,119.98998)" />
    <path
       d="m 72.383,30.074 h 1.141 V 19.238 h -1.141 z"
       style="fill:#211e1e;fill-opacity:1;fill-rule:nonzero;stroke:none"
       id="path878"
       transform="matrix(0.35277777,0,0,-0.35277777,17.933435,119.98998)" />
    <path
       d="m 82.535,23.039 v 0.027 c 0,1.649 -1.23,3 -2.847,3 -1.665,0 -2.809,-1.351 -2.809,-2.968 v -0.032 c 0,-1.644 1.219,-2.984 2.836,-2.984 1.664,0 2.82,1.34 2.82,2.957 z m -6.828,0 v 0.027 c 0,2.168 1.691,4.012 4.008,4.012 2.301,0 3.992,-1.812 3.992,-3.98 v -0.032 c 0,-2.164 -1.707,-4.007 -4.019,-4.007 -2.305,0 -3.981,1.812 -3.981,3.98"
       style="fill:#211e1e;fill-opacity:1;fill-rule:nonzero;stroke:none"
       id="path880"
       transform="matrix(0.35277777,0,0,-0.35277777,17.933435,119.98998)" />
    <path
       d="m 85.773,26.914 h 1.145 V 24.91 c 0.562,1.278 1.676,2.195 3.133,2.137 v -1.231 h -0.09 c -1.68,0 -3.043,-1.203 -3.043,-3.519 v -3.059 h -1.145 v 7.676"
       style="fill:#211e1e;fill-opacity:1;fill-rule:nonzero;stroke:none"
       id="path882"
       transform="matrix(0.35277777,0,0,-0.35277777,17.933435,119.98998)" />
    <path
       d="m 96.539,29.629 h 1.172 V 19.238 h -1.172 z"
       style="fill:#211e1e;fill-opacity:1;fill-rule:nonzero;stroke:none"
       id="path884"
       transform="matrix(0.35277777,0,0,-0.35277777,17.933435,119.98998)" />
    <path
       d="m 100.562,26.914 h 1.141 v -1.336 c 0.508,0.832 1.309,1.5 2.629,1.5 1.856,0 2.941,-1.25 2.941,-3.074 v -4.766 h -1.144 v 4.485 c 0,1.425 -0.77,2.316 -2.121,2.316 -1.324,0 -2.305,-0.965 -2.305,-2.406 v -4.395 h -1.141 v 7.676"
       style="fill:#211e1e;fill-opacity:1;fill-rule:nonzero;stroke:none"
       id="path886"
       transform="matrix(0.35277777,0,0,-0.35277777,17.933435,119.98998)" />
    <path
       d="m 109.07,20.219 0.578,0.816 c 0.832,-0.625 1.754,-0.98 2.657,-0.98 0.922,0 1.59,0.472 1.59,1.218 v 0.028 c 0,0.773 -0.907,1.07 -1.915,1.351 -1.203,0.34 -2.539,0.758 -2.539,2.168 v 0.032 c 0,1.32 1.098,2.195 2.614,2.195 0.933,0 1.972,-0.328 2.761,-0.848 l -0.519,-0.859 c -0.715,0.461 -1.531,0.742 -2.274,0.742 -0.906,0 -1.484,-0.477 -1.484,-1.113 v -0.031 c 0,-0.727 0.949,-1.008 1.977,-1.321 1.187,-0.355 2.464,-0.816 2.464,-2.195 v -0.031 c 0,-1.457 -1.203,-2.301 -2.734,-2.301 -1.098,0 -2.316,0.43 -3.176,1.129"
       style="fill:#211e1e;fill-opacity:1;fill-rule:nonzero;stroke:none"
       id="path888"
       transform="matrix(0.35277777,0,0,-0.35277777,17.933435,119.98998)" />
    <path
       d="m 117.355,21.273 v 4.629 h -1.07 v 1.012 h 1.07 v 2.316 h 1.141 v -2.316 h 2.438 v -1.012 h -2.438 v -4.48 c 0,-0.938 0.524,-1.277 1.293,-1.277 0.387,0 0.715,0.074 1.113,0.265 v -0.98 c -0.398,-0.207 -0.832,-0.325 -1.379,-0.325 -1.234,0 -2.168,0.606 -2.168,2.168"
       style="fill:#211e1e;fill-opacity:1;fill-rule:nonzero;stroke:none"
       id="path890"
       transform="matrix(0.35277777,0,0,-0.35277777,17.933435,119.98998)" />
    <path
       d="m 123.059,26.914 h 1.14 v -7.676 h -1.14 z m -0.075,2.938 h 1.305 V 28.59 h -1.305 v 1.262"
       style="fill:#211e1e;fill-opacity:1;fill-rule:nonzero;stroke:none"
       id="path892"
       transform="matrix(0.35277777,0,0,-0.35277777,17.933435,119.98998)" />
    <path
       d="m 127.258,21.273 v 4.629 h -1.067 v 1.012 h 1.067 v 2.316 h 1.144 v -2.316 h 2.434 v -1.012 h -2.434 v -4.48 c 0,-0.938 0.52,-1.277 1.293,-1.277 0.383,0 0.711,0.074 1.114,0.265 v -0.98 c -0.403,-0.207 -0.832,-0.325 -1.383,-0.325 -1.231,0 -2.168,0.606 -2.168,2.168"
       style="fill:#211e1e;fill-opacity:1;fill-rule:nonzero;stroke:none"
       id="path894"
       transform="matrix(0.35277777,0,0,-0.35277777,17.933435,119.98998)" />
    <path
       d="m 132.738,22.148 v 4.766 h 1.141 V 22.43 c 0,-1.426 0.773,-2.317 2.125,-2.317 1.305,0 2.301,0.965 2.301,2.407 v 4.394 h 1.129 v -7.676 h -1.129 v 1.336 c -0.52,-0.832 -1.309,-1.5 -2.629,-1.5 -1.856,0 -2.938,1.246 -2.938,3.074"
       style="fill:#211e1e;fill-opacity:1;fill-rule:nonzero;stroke:none"
       id="path896"
       transform="matrix(0.35277777,0,0,-0.35277777,17.933435,119.98998)" />
    <path
       d="m 142.402,21.273 v 4.629 h -1.07 v 1.012 h 1.07 v 2.316 h 1.145 v -2.316 h 2.433 v -1.012 h -2.433 v -4.48 c 0,-0.938 0.519,-1.277 1.289,-1.277 0.387,0 0.715,0.074 1.113,0.265 v -0.98 c -0.398,-0.207 -0.828,-0.325 -1.379,-0.325 -1.234,0 -2.168,0.606 -2.168,2.168"
       style="fill:#211e1e;fill-opacity:1;fill-rule:nonzero;stroke:none"
       id="path898"
       transform="matrix(0.35277777,0,0,-0.35277777,17.933435,119.98998)" />
    <path
       d="m 153.406,23.5 c -0.121,1.395 -0.922,2.613 -2.453,2.613 -1.336,0 -2.344,-1.113 -2.492,-2.613 z m -6.101,-0.445 v 0.027 c 0,2.215 1.558,3.996 3.679,3.996 2.274,0 3.578,-1.812 3.578,-4.055 0,-0.148 0,-0.238 -0.015,-0.371 h -6.086 c 0.164,-1.664 1.336,-2.597 2.703,-2.597 1.051,0 1.797,0.429 2.418,1.082 l 0.715,-0.637 c -0.774,-0.863 -1.707,-1.441 -3.164,-1.441 -2.11,0 -3.828,1.617 -3.828,3.996"
       style="fill:#211e1e;fill-opacity:1;fill-rule:nonzero;stroke:none"
       id="path900"
       transform="matrix(0.35277777,0,0,-0.35277777,17.933435,119.98998)" />
    <path
       d="m 161.453,25.902 h -1.055 v 0.996 h 1.055 v 0.668 c 0,0.875 0.238,1.543 0.668,1.977 0.387,0.383 0.949,0.594 1.649,0.594 0.535,0 0.89,-0.063 1.261,-0.196 v -0.992 c -0.418,0.117 -0.726,0.192 -1.113,0.192 -0.891,0 -1.336,-0.536 -1.336,-1.633 v -0.625 h 2.434 v -0.981 h -2.418 v -6.664 h -1.145 v 6.664"
       style="fill:#211e1e;fill-opacity:1;fill-rule:nonzero;stroke:none"
       id="path902"
       transform="matrix(0.35277777,0,0,-0.35277777,17.933435,119.98998)" />
    <path
       d="m 172.676,23.039 v 0.027 c 0,1.649 -1.231,3 -2.848,3 -1.664,0 -2.808,-1.351 -2.808,-2.968 v -0.032 c 0,-1.644 1.218,-2.984 2.835,-2.984 1.665,0 2.821,1.34 2.821,2.957 z m -6.828,0 v 0.027 c 0,2.168 1.691,4.012 4.007,4.012 2.301,0 3.997,-1.812 3.997,-3.98 v -0.032 c 0,-2.164 -1.707,-4.007 -4.024,-4.007 -2.301,0 -3.98,1.812 -3.98,3.98"
       style="fill:#211e1e;fill-opacity:1;fill-rule:nonzero;stroke:none"
       id="path904"
       transform="matrix(0.35277777,0,0,-0.35277777,17.933435,119.98998)" />
    <path
       d="m 175.914,26.914 h 1.145 V 24.91 c 0.562,1.278 1.675,2.195 3.132,2.137 v -1.231 h -0.089 c -1.68,0 -3.043,-1.203 -3.043,-3.519 v -3.059 h -1.145 v 7.676"
       style="fill:#211e1e;fill-opacity:1;fill-rule:nonzero;stroke:none"
       id="path906"
       transform="matrix(0.35277777,0,0,-0.35277777,17.933435,119.98998)" />
    <path
       d="m 189.32,28.547 h -3.488 v 1.082 H 194 v -1.082 h -3.488 v -9.309 h -1.192 v 9.309"
       style="fill:#211e1e;fill-opacity:1;fill-rule:nonzero;stroke:none"
       id="path908"
       transform="matrix(0.35277777,0,0,-0.35277777,17.933435,119.98998)" />
    <path
       d="m 199.746,23.5 c -0.121,1.395 -0.922,2.613 -2.449,2.613 -1.34,0 -2.348,-1.113 -2.496,-2.613 z m -6.101,-0.445 v 0.027 c 0,2.215 1.558,3.996 3.679,3.996 2.274,0 3.578,-1.812 3.578,-4.055 0,-0.148 0,-0.238 -0.015,-0.371 h -6.086 c 0.164,-1.664 1.336,-2.597 2.703,-2.597 1.055,0 1.797,0.429 2.418,1.082 l 0.715,-0.637 c -0.774,-0.863 -1.707,-1.441 -3.164,-1.441 -2.11,0 -3.828,1.617 -3.828,3.996"
       style="fill:#211e1e;fill-opacity:1;fill-rule:nonzero;stroke:none"
       id="path910"
       transform="matrix(0.35277777,0,0,-0.35277777,17.933435,119.98998)" />
    <path
       d="m 207.984,22.059 v 0.742 c -0.562,0.164 -1.32,0.328 -2.254,0.328 -1.441,0 -2.242,-0.625 -2.242,-1.59 v -0.031 c 0,-0.965 0.891,-1.528 1.93,-1.528 1.41,0 2.566,0.86 2.566,2.079 z m -5.656,-0.594 v 0.031 c 0,1.617 1.336,2.477 3.281,2.477 0.981,0 1.68,-0.133 2.364,-0.325 v 0.266 c 0,1.383 -0.848,2.094 -2.289,2.094 -0.907,0 -1.618,-0.238 -2.329,-0.563 l -0.343,0.934 c 0.847,0.387 1.679,0.637 2.793,0.637 1.082,0 1.914,-0.282 2.476,-0.844 0.52,-0.52 0.789,-1.262 0.789,-2.242 v -4.692 h -1.097 v 1.157 c -0.535,-0.696 -1.426,-1.321 -2.778,-1.321 -1.425,0 -2.867,0.817 -2.867,2.391"
       style="fill:#211e1e;fill-opacity:1;fill-rule:nonzero;stroke:none"
       id="path912"
       transform="matrix(0.35277777,0,0,-0.35277777,17.933435,119.98998)" />
    <path
       d="m 211.031,23.039 v 0.027 c 0,2.168 1.692,4.012 3.934,4.012 1.453,0 2.359,-0.609 3.074,-1.367 l -0.758,-0.801 c -0.609,0.637 -1.293,1.156 -2.332,1.156 -1.558,0 -2.746,-1.32 -2.746,-2.968 v -0.032 c 0,-1.66 1.219,-2.984 2.82,-2.984 0.981,0 1.739,0.492 2.348,1.145 l 0.727,-0.684 c -0.774,-0.859 -1.692,-1.484 -3.133,-1.484 -2.242,0 -3.934,1.828 -3.934,3.98"
       style="fill:#211e1e;fill-opacity:1;fill-rule:nonzero;stroke:none"
       id="path914"
       transform="matrix(0.35277777,0,0,-0.35277777,17.933435,119.98998)" />
    <path
       d="m 219.984,30.074 h 1.141 v -4.496 c 0.508,0.832 1.309,1.5 2.629,1.5 1.855,0 2.941,-1.25 2.941,-3.074 v -4.766 h -1.144 v 4.485 c 0,1.425 -0.774,2.316 -2.121,2.316 -1.325,0 -2.305,-0.965 -2.305,-2.406 v -4.395 h -1.141 v 10.836"
       style="fill:#211e1e;fill-opacity:1;fill-rule:nonzero;stroke:none"
       id="path916"
       transform="matrix(0.35277777,0,0,-0.35277777,17.933435,119.98998)" />
    <path
       d="m 229.234,26.914 h 1.141 v -7.676 h -1.141 z m -0.074,2.938 h 1.305 V 28.59 h -1.305 v 1.262"
       style="fill:#211e1e;fill-opacity:1;fill-rule:nonzero;stroke:none"
       id="path918"
       transform="matrix(0.35277777,0,0,-0.35277777,17.933435,119.98998)" />
    <path
       d="m 233.035,26.914 h 1.145 v -1.336 c 0.504,0.832 1.304,1.5 2.625,1.5 1.855,0 2.941,-1.25 2.941,-3.074 v -4.766 h -1.144 v 4.485 c 0,1.425 -0.774,2.316 -2.122,2.316 -1.324,0 -2.3,-0.965 -2.3,-2.406 v -4.395 h -1.145 v 7.676"
       style="fill:#211e1e;fill-opacity:1;fill-rule:nonzero;stroke:none"
       id="path920"
       transform="matrix(0.35277777,0,0,-0.35277777,17.933435,119.98998)" />
    <path
       d="m 248.387,23.438 v 0.031 c 0,1.574 -1.367,2.597 -2.821,2.597 -1.453,0 -2.656,-1.007 -2.656,-2.582 v -0.031 c 0,-1.543 1.231,-2.613 2.656,-2.613 1.454,0 2.821,1.055 2.821,2.598 z m -6.297,-5.536 0.523,0.891 c 0.875,-0.641 1.856,-0.981 2.953,-0.981 1.692,0 2.793,0.934 2.793,2.731 v 0.906 c -0.668,-0.89 -1.605,-1.617 -3.015,-1.617 -1.84,0 -3.61,1.379 -3.61,3.594 v 0.027 c 0,2.242 1.786,3.625 3.61,3.625 1.441,0 2.375,-0.715 3,-1.547 v 1.383 h 1.14 v -6.34 c 0,-1.187 -0.355,-2.094 -0.98,-2.719 -0.68,-0.679 -1.707,-1.023 -2.922,-1.023 -1.277,0 -2.465,0.356 -3.492,1.07"
       style="fill:#211e1e;fill-opacity:1;fill-rule:nonzero;stroke:none"
       id="path922"
       transform="matrix(0.35277777,0,0,-0.35277777,17.933435,119.98998)" />
    <path
       d="m 261.57,22.059 v 0.742 c -0.562,0.164 -1.32,0.328 -2.254,0.328 -1.441,0 -2.242,-0.625 -2.242,-1.59 v -0.031 c 0,-0.965 0.891,-1.528 1.93,-1.528 1.41,0 2.566,0.86 2.566,2.079 z m -5.656,-0.594 v 0.031 c 0,1.617 1.336,2.477 3.281,2.477 0.981,0 1.68,-0.133 2.364,-0.325 v 0.266 c 0,1.383 -0.848,2.094 -2.289,2.094 -0.907,0 -1.618,-0.238 -2.329,-0.563 l -0.343,0.934 c 0.847,0.387 1.679,0.637 2.793,0.637 1.082,0 1.914,-0.282 2.476,-0.844 0.52,-0.52 0.789,-1.262 0.789,-2.242 v -4.692 h -1.097 v 1.157 c -0.536,-0.696 -1.426,-1.321 -2.778,-1.321 -1.426,0 -2.867,0.817 -2.867,2.391"
       style="fill:#211e1e;fill-opacity:1;fill-rule:nonzero;stroke:none"
       id="path924"
       transform="matrix(0.35277777,0,0,-0.35277777,17.933435,119.98998)" />
    <path
       d="m 265.09,26.914 h 1.144 v -1.336 c 0.504,0.832 1.305,1.5 2.629,1.5 1.856,0 2.938,-1.25 2.938,-3.074 v -4.766 h -1.141 v 4.485 c 0,1.425 -0.773,2.316 -2.125,2.316 -1.32,0 -2.301,-0.965 -2.301,-2.406 v -4.395 h -1.144 v 7.676"
       style="fill:#211e1e;fill-opacity:1;fill-rule:nonzero;stroke:none"
       id="path926"
       transform="matrix(0.35277777,0,0,-0.35277777,17.933435,119.98998)" />
    <path
       d="m 280.445,23.066 v 0.032 c 0,1.765 -1.351,2.953 -2.777,2.953 -1.484,0 -2.703,-1.098 -2.703,-2.953 v -0.032 c 0,-1.808 1.262,-2.968 2.703,-2.968 1.426,0 2.777,1.203 2.777,2.968 z m -6.652,-0.011 v 0.027 c 0,2.512 1.824,3.996 3.668,3.996 1.426,0 2.344,-0.773 2.937,-1.633 v 4.629 h 1.145 V 19.238 h -1.145 v 1.543 c -0.621,-0.922 -1.527,-1.707 -2.937,-1.707 -1.844,0 -3.668,1.453 -3.668,3.981"
       style="fill:#211e1e;fill-opacity:1;fill-rule:nonzero;stroke:none"
       id="path928"
       transform="matrix(0.35277777,0,0,-0.35277777,17.933435,119.98998)" />
    <path
       d="m 288.742,29.629 h 1.172 V 20.32 h 5.852 v -1.082 h -7.024 v 10.391"
       style="fill:#211e1e;fill-opacity:1;fill-rule:nonzero;stroke:none"
       id="path930"
       transform="matrix(0.35277777,0,0,-0.35277777,17.933435,119.98998)" />
    <path
       d="m 303.219,23.5 c -0.117,1.395 -0.918,2.613 -2.449,2.613 -1.336,0 -2.344,-1.113 -2.493,-2.613 z m -6.102,-0.445 v 0.027 c 0,2.215 1.559,3.996 3.684,3.996 2.269,0 3.578,-1.812 3.578,-4.055 0,-0.148 0,-0.238 -0.016,-0.371 h -6.086 c 0.164,-1.664 1.336,-2.597 2.703,-2.597 1.051,0 1.793,0.429 2.418,1.082 l 0.715,-0.637 c -0.773,-0.863 -1.711,-1.441 -3.164,-1.441 -2.109,0 -3.832,1.617 -3.832,3.996"
       style="fill:#211e1e;fill-opacity:1;fill-rule:nonzero;stroke:none"
       id="path932"
       transform="matrix(0.35277777,0,0,-0.35277777,17.933435,119.98998)" />
    <path
       d="m 311.461,22.059 v 0.742 c -0.563,0.164 -1.32,0.328 -2.258,0.328 -1.437,0 -2.242,-0.625 -2.242,-1.59 v -0.031 c 0,-0.965 0.894,-1.528 1.934,-1.528 1.41,0 2.566,0.86 2.566,2.079 z m -5.656,-0.594 v 0.031 c 0,1.617 1.336,2.477 3.281,2.477 0.98,0 1.676,-0.133 2.359,-0.325 v 0.266 c 0,1.383 -0.843,2.094 -2.285,2.094 -0.906,0 -1.621,-0.238 -2.332,-0.563 l -0.34,0.934 c 0.844,0.387 1.676,0.637 2.789,0.637 1.086,0 1.918,-0.282 2.481,-0.844 0.519,-0.52 0.785,-1.262 0.785,-2.242 v -4.692 h -1.098 v 1.157 c -0.535,-0.696 -1.425,-1.321 -2.777,-1.321 -1.426,0 -2.863,0.817 -2.863,2.391"
       style="fill:#211e1e;fill-opacity:1;fill-rule:nonzero;stroke:none"
       id="path934"
       transform="matrix(0.35277777,0,0,-0.35277777,17.933435,119.98998)" />
    <path
       d="m 314.98,26.914 h 1.141 V 24.91 c 0.567,1.278 1.68,2.195 3.133,2.137 v -1.231 h -0.086 c -1.68,0 -3.047,-1.203 -3.047,-3.519 v -3.059 h -1.141 v 7.676"
       style="fill:#211e1e;fill-opacity:1;fill-rule:nonzero;stroke:none"
       id="path936"
       transform="matrix(0.35277777,0,0,-0.35277777,17.933435,119.98998)" />
    <path
       d="m 320.992,26.914 h 1.145 v -1.336 c 0.504,0.832 1.308,1.5 2.629,1.5 1.855,0 2.937,-1.25 2.937,-3.074 v -4.766 h -1.141 v 4.485 c 0,1.425 -0.773,2.316 -2.124,2.316 -1.321,0 -2.301,-0.965 -2.301,-2.406 v -4.395 h -1.145 v 7.676"
       style="fill:#211e1e;fill-opacity:1;fill-rule:nonzero;stroke:none"
       id="path938"
       transform="matrix(0.35277777,0,0,-0.35277777,17.933435,119.98998)" />
    <path
       d="m 330.242,26.914 h 1.145 v -7.676 h -1.145 z m -0.074,2.938 h 1.309 V 28.59 h -1.309 v 1.262"
       style="fill:#211e1e;fill-opacity:1;fill-rule:nonzero;stroke:none"
       id="path940"
       transform="matrix(0.35277777,0,0,-0.35277777,17.933435,119.98998)" />
    <path
       d="m 334.043,26.914 h 1.145 v -1.336 c 0.503,0.832 1.304,1.5 2.628,1.5 1.856,0 2.938,-1.25 2.938,-3.074 v -4.766 h -1.141 v 4.485 c 0,1.425 -0.773,2.316 -2.125,2.316 -1.32,0 -2.3,-0.965 -2.3,-2.406 v -4.395 h -1.145 v 7.676"
       style="fill:#211e1e;fill-opacity:1;fill-rule:nonzero;stroke:none"
       id="path942"
       transform="matrix(0.35277777,0,0,-0.35277777,17.933435,119.98998)" />
    <path
       d="m 349.398,23.438 v 0.031 c 0,1.574 -1.367,2.597 -2.824,2.597 -1.453,0 -2.656,-1.007 -2.656,-2.582 v -0.031 c 0,-1.543 1.234,-2.613 2.656,-2.613 1.457,0 2.824,1.055 2.824,2.598 z m -6.296,-5.536 0.519,0.891 c 0.875,-0.641 1.856,-0.981 2.953,-0.981 1.696,0 2.793,0.934 2.793,2.731 v 0.906 c -0.668,-0.89 -1.601,-1.617 -3.012,-1.617 -1.843,0 -3.609,1.379 -3.609,3.594 v 0.027 c 0,2.242 1.781,3.625 3.609,3.625 1.438,0 2.375,-0.715 2.997,-1.547 v 1.383 h 1.144 v -6.34 c 0,-1.187 -0.355,-2.094 -0.98,-2.719 -0.684,-0.679 -1.707,-1.023 -2.926,-1.023 -1.274,0 -2.465,0.356 -3.488,1.07"
       style="fill:#211e1e;fill-opacity:1;fill-rule:nonzero;stroke:none"
       id="path944"
       transform="matrix(0.35277777,0,0,-0.35277777,17.933435,119.98998)" />
    <path
       d="M 18.59,53.883 C 5.445,53.883 0,49.473 0,49.473 V 29.703 C 0,18.754 14.48,7.395 18.59,6.262 22.695,7.395 37.176,18.754 37.176,29.703 v 19.77 c 0,0 -5.446,4.41 -18.586,4.41"
       style="fill:#211e1e;fill-opacity:1;fill-rule:nonzero;stroke:none"
       id="path946"
       transform="matrix(0.35277777,0,0,-0.35277777,17.933435,119.98998)" />
    <path
       d="m 16.32,29.406 c 0.082,-0.109 0.141,-0.234 0.141,-0.383 0,-0.355 -0.293,-0.64 -0.652,-0.64 -0.368,0 -0.664,0.285 -0.664,0.64 0,0.192 0.085,0.356 0.222,0.473 -0.519,0.098 -1.058,0.359 -1.058,0.359 0.121,-0.375 0.39,-1.808 1.336,-1.91 1.164,-0.133 1.464,0.95 1.464,0.95 0,0 -0.195,0.343 -0.789,0.511"
       style="display:inline;fill:#faca05;fill-opacity:1;fill-rule:nonzero;stroke:none"
       id="path948"
       transform="matrix(0.35277777,0,0,-0.35277777,17.933435,119.98998)" />
    <path
       d="m 21.879,29.496 c 0.137,-0.117 0.223,-0.281 0.223,-0.473 0,-0.355 -0.297,-0.64 -0.661,-0.64 -0.363,0 -0.656,0.285 -0.656,0.64 0,0.149 0.059,0.274 0.141,0.383 -0.594,-0.168 -0.789,-0.511 -0.789,-0.511 0,0 0.301,-1.083 1.465,-0.95 0.945,0.102 1.214,1.535 1.336,1.91 0,0 -0.54,-0.261 -1.059,-0.359"
       style="display:inline;fill:#faca05;fill-opacity:1;fill-rule:nonzero;stroke:none"
       id="path950"
       transform="matrix(0.35277777,0,0,-0.35277777,17.933435,119.98998)" />
    <path
       d="m 22.977,32.828 c -0.383,0.313 -0.883,-0.082 -0.504,-0.508 0.312,-0.355 0.523,-0.586 0.386,-0.843 -0.187,-0.352 -1.964,-0.266 -4.234,-1.122 -2.277,0.856 -4.051,0.77 -4.234,1.122 -0.141,0.257 0.066,0.488 0.382,0.843 0.379,0.426 -0.121,0.821 -0.503,0.508 -0.321,-0.266 -0.907,-1.074 -0.696,-1.617 0.328,-0.867 2.356,-0.594 5.043,-1.707 V 29.5 c 0.004,0 0.004,0 0.008,0 0,0 0.004,0 0.004,0 v 0.004 c 2.687,1.113 4.711,0.84 5.043,1.707 0.211,0.543 -0.375,1.351 -0.695,1.617"
       style="display:inline;fill:#faca05;fill-opacity:1;fill-rule:nonzero;stroke:none"
       id="path952"
       transform="matrix(0.35277777,0,0,-0.35277777,17.933435,119.98998)" />
    <path
       d="m 20.582,21.531 c -0.348,0.137 -0.973,0.496 -1.144,1.129 -0.161,0.574 0.066,0.969 0.324,1.035 0.242,0.059 0.508,-0.105 0.402,-0.406 -0.078,-0.227 -0.32,-0.34 -0.406,-0.394 -0.149,-0.09 -0.024,-0.286 0.164,-0.247 0.41,0.079 0.648,0.524 0.633,0.84 -0.02,0.492 -0.578,0.606 -0.887,0.547 -0.48,-0.094 -0.828,-0.57 -0.633,-1.387 0.192,-0.781 0.875,-1.199 1.238,-1.363 -0.312,-0.133 -0.996,-0.238 -1.648,-0.277 -0.66,0.039 -1.34,0.144 -1.652,0.277 0.359,0.164 1.047,0.582 1.234,1.363 0.199,0.817 -0.148,1.293 -0.629,1.387 -0.308,0.059 -0.867,-0.055 -0.887,-0.547 -0.015,-0.316 0.223,-0.761 0.633,-0.84 0.184,-0.039 0.313,0.157 0.164,0.247 -0.09,0.054 -0.328,0.167 -0.406,0.394 -0.105,0.301 0.156,0.465 0.402,0.406 0.262,-0.066 0.485,-0.461 0.328,-1.035 -0.175,-0.633 -0.8,-0.992 -1.152,-1.129 -0.293,-0.117 -0.336,-0.422 -0.152,-0.527 0.617,-0.352 1.515,-0.43 2.07,-0.438 0.016,0 0.031,0 0.047,0 0.012,0 0.027,0 0.043,0 0.555,0.008 1.457,0.086 2.07,0.438 0.188,0.105 0.141,0.41 -0.156,0.527"
       style="display:inline;fill:#faca05;fill-opacity:1;fill-rule:nonzero;stroke:none"
       id="path954"
       transform="matrix(0.35277777,0,0,-0.35277777,17.933435,119.98998)" />
    <path
       d="m 18.637,47.625 c 0.164,0.023 0.351,0.074 0.511,0.184 0.024,0.019 0.047,0.039 0.071,0.058 0.176,0.16 0.535,0.653 0.64,0.867 0.024,0.039 0.024,0.082 0,0.137 -0.047,0.109 -0.168,0.215 -0.199,0.223 -0.16,0.054 -1.894,0.058 -2.062,0.004 0,0 -0.008,-0.004 -0.024,-0.012 -0.078,-0.059 -0.23,-0.219 -0.176,-0.34 0.102,-0.203 0.481,-0.711 0.657,-0.875 0.172,-0.152 0.386,-0.211 0.582,-0.246"
       style="display:inline;fill:#faca05;fill-opacity:1;fill-rule:nonzero;stroke:none"
       id="path956"
       transform="matrix(0.35277777,0,0,-0.35277777,17.933435,119.98998)" />
    <path
       d="m 17.305,46.797 c 0.019,0.156 0.027,0.344 -0.028,0.523 -0.007,0.028 -0.015,0.055 -0.031,0.086 -0.109,0.211 -0.488,0.676 -0.664,0.84 -0.035,0.031 -0.082,0.043 -0.137,0.043 -0.121,-0.012 -0.257,-0.09 -0.281,-0.117 -0.102,-0.129 -0.644,-1.719 -0.641,-1.883 0,0 0,-0.012 0.008,-0.031 0.031,-0.09 0.141,-0.281 0.281,-0.262 0.231,0.024 0.856,0.227 1.071,0.34 0.199,0.105 0.324,0.289 0.422,0.461"
       style="display:inline;fill:#faca05;fill-opacity:1;fill-rule:nonzero;stroke:none"
       id="path958"
       transform="matrix(0.35277777,0,0,-0.35277777,17.933435,119.98998)" />
    <path
       d="m 17.707,45.316 c -0.152,0.071 -0.328,0.137 -0.519,0.137 -0.036,0 -0.063,0 -0.094,-0.004 -0.246,-0.031 -0.828,-0.246 -1.047,-0.363 -0.039,-0.02 -0.067,-0.059 -0.082,-0.109 -0.027,-0.118 0.008,-0.262 0.023,-0.293 0.102,-0.137 1.5,-1.122 1.664,-1.172 0,0 0.008,0 0.032,0 0.093,0 0.324,0.043 0.351,0.176 0.043,0.218 0.043,0.863 -0.008,1.097 -0.039,0.215 -0.183,0.387 -0.32,0.531"
       style="display:inline;fill:#faca05;fill-opacity:1;fill-rule:nonzero;stroke:none"
       id="path960"
       transform="matrix(0.35277777,0,0,-0.35277777,17.933435,119.98998)" />
    <path
       d="m 19.297,45.23 c -0.117,-0.113 -0.242,-0.257 -0.301,-0.437 -0.012,-0.031 -0.019,-0.059 -0.023,-0.09 -0.047,-0.234 -0.016,-0.84 0.023,-1.078 0.012,-0.043 0.039,-0.078 0.086,-0.113 0.109,-0.063 0.262,-0.071 0.297,-0.063 0.168,0.047 1.57,1.024 1.668,1.164 0,0 0.008,0.004 0.012,0.024 0.035,0.09 0.058,0.312 -0.063,0.371 -0.203,0.113 -0.84,0.316 -1.078,0.351 -0.23,0.032 -0.441,-0.047 -0.621,-0.129"
       style="display:inline;fill:#faca05;fill-opacity:1;fill-rule:nonzero;stroke:none"
       id="path962"
       transform="matrix(0.35277777,0,0,-0.35277777,17.933435,119.98998)" />
    <path
       d="m 19.867,46.656 c 0.082,-0.144 0.184,-0.301 0.34,-0.41 0.023,-0.016 0.047,-0.031 0.082,-0.047 0.215,-0.113 0.82,-0.289 1.063,-0.32 0.046,-0.012 0.089,0.008 0.136,0.047 0.098,0.07 0.157,0.211 0.16,0.246 0.004,0.164 -0.527,1.754 -0.628,1.89 0,0 -0.008,0.008 -0.028,0.02 -0.078,0.059 -0.289,0.145 -0.387,0.055 -0.171,-0.153 -0.566,-0.66 -0.671,-0.871 -0.102,-0.196 -0.09,-0.418 -0.067,-0.61"
       style="display:inline;fill:#faca05;fill-opacity:1;fill-rule:nonzero;stroke:none"
       id="path964"
       transform="matrix(0.35277777,0,0,-0.35277777,17.933435,119.98998)" />
    <path
       d="m 19.055,46.148 c -0.106,0.024 -0.16,0.133 -0.129,0.231 0.035,0.098 0.144,0.152 0.242,0.117 0.102,-0.031 0.16,-0.133 0.125,-0.23 -0.031,-0.098 -0.141,-0.149 -0.238,-0.118 z m -0.403,0.571 c -0.09,0.058 -0.109,0.176 -0.043,0.261 0.059,0.082 0.176,0.098 0.27,0.043 0.082,-0.066 0.098,-0.183 0.035,-0.261 -0.059,-0.086 -0.18,-0.106 -0.262,-0.043 z m 0.024,-1.071 c -0.11,0 -0.192,0.082 -0.192,0.188 0,0.102 0.082,0.184 0.192,0.184 0.105,0 0.191,-0.082 0.191,-0.184 0,-0.106 -0.086,-0.188 -0.191,-0.188 z m -0.449,0.918 c -0.086,-0.062 -0.207,-0.039 -0.27,0.047 -0.062,0.082 -0.043,0.196 0.039,0.258 0.09,0.059 0.207,0.039 0.27,-0.043 0.066,-0.082 0.046,-0.199 -0.039,-0.262 z m -0.106,-0.664 c -0.101,-0.031 -0.211,0.024 -0.242,0.118 -0.031,0.097 0.019,0.203 0.117,0.238 0.109,0.027 0.219,-0.02 0.246,-0.117 0.035,-0.102 -0.019,-0.203 -0.121,-0.239 z m 1.473,0.625 c -0.047,0.082 -0.114,0.149 -0.196,0.2 0.012,0.062 0.02,0.121 0.008,0.179 -0.023,0.149 -0.101,0.274 -0.226,0.367 -0.207,0.141 -0.489,0.122 -0.684,-0.023 -0.191,0.09 -0.43,0.09 -0.605,-0.035 C 17.77,47.129 17.684,47 17.664,46.855 17.645,46.762 17.66,46.672 17.691,46.586 17.648,46.543 17.605,46.5 17.578,46.445 17.508,46.309 17.496,46.16 17.543,46.02 c 0.078,-0.231 0.301,-0.383 0.547,-0.383 0.008,0 0.012,0 0.019,0 0.094,-0.18 0.282,-0.305 0.508,-0.305 0.258,0 0.473,0.172 0.543,0.398 0.219,0.032 0.399,0.172 0.465,0.375 0.051,0.141 0.035,0.29 -0.031,0.422"
       style="display:inline;fill:#faca05;fill-opacity:1;fill-rule:nonzero;stroke:none"
       id="path966"
       transform="matrix(0.35277777,0,0,-0.35277777,17.933435,119.98998)" />
    <path
       d="M 8.336,48.508 C 7.801,49.012 7.5,49.125 7.344,49.125 7.258,49.125 7.148,49.094 6.965,48.898 6.918,48.852 6.871,48.797 6.828,48.746 6.574,48.457 6.258,48.086 5.703,48.086 5.5,48.086 5.281,48.141 5.047,48.25 v -4.223 c 0.215,-0.371 0.43,-0.578 0.609,-0.578 0.102,0 0.274,0.055 0.539,0.34 0.625,0.668 1.379,0.789 2.141,0.34 v 4.379"
       style="display:inline;fill:#faca05;fill-opacity:1;fill-rule:nonzero;stroke:none"
       id="path968"
       transform="matrix(0.35277777,0,0,-0.35277777,17.933435,119.98998)" />
    <path
       d="m 11.699,48.086 c -0.551,0 -0.871,0.371 -1.121,0.66 -0.047,0.051 -0.094,0.106 -0.137,0.152 -0.183,0.196 -0.296,0.227 -0.382,0.227 -0.161,0 -0.457,-0.113 -0.989,-0.617 v -4.379 c 0.297,0.18 0.594,0.266 0.891,0.266 0.449,0 0.867,-0.2 1.246,-0.606 0.266,-0.285 0.438,-0.34 0.535,-0.34 0.188,0 0.399,0.207 0.61,0.578 v 4.223 c -0.235,-0.109 -0.45,-0.164 -0.653,-0.164"
       style="display:inline;fill:#faca05;fill-opacity:1;fill-rule:nonzero;stroke:none"
       id="path970"
       transform="matrix(0.35277777,0,0,-0.35277777,17.933435,119.98998)" />
    <path
       d="m 28.867,44.129 c 0.762,0.449 1.516,0.328 2.141,-0.34 0.262,-0.285 0.437,-0.34 0.535,-0.34 0.184,0 0.395,0.207 0.609,0.578 v 4.223 c -0.234,-0.109 -0.449,-0.164 -0.656,-0.164 -0.551,0 -0.863,0.371 -1.121,0.66 -0.043,0.051 -0.09,0.106 -0.137,0.152 -0.183,0.196 -0.293,0.227 -0.383,0.227 -0.156,0 -0.457,-0.113 -0.988,-0.617 v -4.379"
       style="display:inline;fill:#faca05;fill-opacity:1;fill-rule:nonzero;stroke:none"
       id="path972"
       transform="matrix(0.35277777,0,0,-0.35277777,17.933435,119.98998)" />
    <path
       d="m 25.504,48.086 c -0.203,0 -0.422,0.055 -0.656,0.164 v -4.223 c 0.214,-0.371 0.425,-0.578 0.613,-0.578 0.098,0 0.269,0.055 0.531,0.34 0.383,0.406 0.797,0.606 1.246,0.606 0.297,0 0.598,-0.086 0.895,-0.266 v 4.379 c -0.531,0.504 -0.828,0.617 -0.988,0.617 -0.086,0 -0.2,-0.031 -0.383,-0.227 -0.043,-0.046 -0.09,-0.101 -0.137,-0.152 -0.25,-0.289 -0.57,-0.66 -1.121,-0.66"
       style="display:inline;fill:#faca05;fill-opacity:1;fill-rule:nonzero;stroke:none"
       id="path974"
       transform="matrix(0.35277777,0,0,-0.35277777,17.933435,119.98998)" />
    <path
       d="m 14.266,35.219 c -1.364,0.476 -4.145,1.851 -5.321,5.125 -0.304,0.847 -0.75,0.722 -0.664,-0.176 0.219,-2.359 1.715,-5.227 4.848,-6.527 1.344,-0.559 2.098,1.246 1.137,1.578"
       style="display:inline;fill:#faca05;fill-opacity:1;fill-rule:nonzero;stroke:none"
       id="path976"
       transform="matrix(0.35277777,0,0,-0.35277777,17.933435,119.98998)" />
    <path
       d="m 22.98,35.219 c 1.364,0.476 4.145,1.851 5.321,5.125 0.304,0.847 0.75,0.722 0.664,-0.176 -0.219,-2.359 -1.711,-5.227 -4.848,-6.527 -1.344,-0.559 -2.097,1.246 -1.137,1.578"
       style="display:inline;fill:#faca05;fill-opacity:1;fill-rule:nonzero;stroke:none"
       id="path978"
       transform="matrix(0.35277777,0,0,-0.35277777,17.933435,119.98998)" />
    <path
       d="M 30.168,20.344 C 29.422,19.746 28.84,19.336 28.371,19.008 27.348,18.289 26.953,17.965 26.996,17.43 l 0.18,-2.301 -1.344,0.621 c -1.059,0.473 -1.555,1.109 -1.644,2.137 -0.145,1.593 0.839,3.254 2.632,4.449 0.426,0.277 0.805,0.48 1.114,0.633 0.3,0.152 0.582,0.316 0.609,0.398 0.059,0.176 -0.281,0.465 -1.27,0.906 -0.097,0.047 -0.281,0.122 -0.449,0.192 L 18.602,10.898 10.379,24.465 C 10.211,24.395 10.027,24.32 9.926,24.273 8.941,23.832 8.602,23.543 8.66,23.367 8.688,23.285 8.965,23.121 9.27,22.969 9.574,22.816 9.957,22.613 10.383,22.336 12.176,21.141 13.16,19.48 13.016,17.887 12.926,16.859 12.43,16.223 11.371,15.75 l -1.348,-0.621 0.18,2.301 c 0.047,0.535 -0.348,0.859 -1.375,1.578 -0.465,0.328 -1.047,0.738 -1.793,1.336 -4.601,3.699 -4.754,8.359 -3.406,10.344 0.445,0.656 1.711,2.07 1.719,2.078 L 5.137,33.094 C 4.672,33.141 4.309,33.523 4.309,34 c 0,0.504 0.41,0.914 0.914,0.914 0.504,0 0.914,-0.41 0.914,-0.914 0,-0.098 -0.02,-0.191 -0.047,-0.281 0.008,-0.004 0.023,-0.008 0.015,-0.028 l 12.497,-20.91 12.492,20.91 c -0.004,0.02 0.008,0.024 0.019,0.028 -0.031,0.09 -0.047,0.183 -0.047,0.281 0,0.504 0.407,0.914 0.911,0.914 0.507,0 0.914,-0.41 0.914,-0.914 0,-0.477 -0.364,-0.859 -0.825,-0.906 l -0.214,-0.328 c 0.011,-0.008 1.273,-1.422 1.722,-2.078 1.348,-1.985 1.196,-6.645 -3.406,-10.344 z m -0.813,17.644 c -0.531,-1.461 -1.503,-2.972 -3.035,-4.113 1.219,-0.383 2.746,-0.391 3.793,0.301 -0.355,-0.906 -1.468,-2.09 -2.269,-2.871 -0.149,0.097 -0.293,0.222 -0.399,0.336 -0.324,0.347 -0.617,0.043 -0.394,-0.243 0.074,-0.097 0.273,-0.378 0.387,-0.476 -0.239,-0.223 -0.415,-0.375 -0.465,-0.422 -0.164,0.102 -0.328,0.25 -0.45,0.375 -0.32,0.344 -0.613,0.043 -0.394,-0.246 0.078,-0.102 0.285,-0.395 0.398,-0.484 -0.195,-0.157 -0.414,-0.329 -0.609,-0.461 -0.402,0.511 -0.836,1.046 -1.492,0.711 -0.692,-0.352 -0.004,-0.821 -0.004,-1.516 0,-2.774 -1.746,-3.801 -2.176,-4.977 -0.434,-1.175 -0.848,-3.273 -1.191,-3.847 -0.34,-0.563 -1.789,-1.196 -2.453,-0.676 -0.664,-0.52 -2.133,0.105 -2.457,0.676 -0.325,0.574 -0.786,2.672 -1.223,3.847 -0.434,1.176 -2.141,2.203 -2.141,4.977 0,0.695 0.688,1.164 -0.008,1.516 -0.652,0.335 -1.085,-0.2 -1.492,-0.711 -0.191,0.132 -0.41,0.304 -0.609,0.461 0.117,0.089 0.32,0.382 0.398,0.484 0.223,0.289 -0.07,0.59 -0.394,0.246 -0.117,-0.125 -0.285,-0.273 -0.446,-0.375 -0.05,0.047 -0.226,0.199 -0.464,0.422 0.113,0.098 0.312,0.379 0.386,0.476 0.223,0.286 -0.07,0.59 -0.394,0.243 C 9.652,31.527 9.508,31.402 9.359,31.305 8.555,32.086 7.445,33.27 7.09,34.176 8.176,33.453 9.59,33.488 10.824,33.922 9.336,35.047 8.383,36.531 7.855,37.965 5.5,37.316 3.293,36.477 1.496,35.457 v -5.906 c 0,-9.535 13.633,-20.563 17.137,-21.547 3.5,0.984 17.043,12.012 17.043,21.547 v 5.965 c -1.785,1.004 -3.981,1.832 -6.321,2.472"
       style="display:inline;fill:#faca05;fill-opacity:1;fill-rule:nonzero;stroke:none"
       id="path986"
       transform="matrix(0.35277777,0,0,-0.35277777,17.933435,119.98998)" />
    <path
       d="m 33.184,42.242 -4.079,0.867 v -0.382 h -1.214 v 0.382 L 25.629,42.77 C 25.598,42.762 25.574,42.758 25.543,42.754 L 23.82,42.496 v 6.012 l 0.305,0.086 v 1 l 0.582,-0.43 c 0.414,-0.309 0.664,-0.379 0.797,-0.379 0.199,0 0.344,0.156 0.566,0.414 0.051,0.055 0.102,0.113 0.149,0.168 0.289,0.305 0.59,0.453 0.926,0.453 0.398,0 0.832,-0.222 1.355,-0.687 0.527,0.465 0.957,0.687 1.355,0.687 0.336,0 0.637,-0.148 0.918,-0.453 0.055,-0.055 0.106,-0.113 0.157,-0.168 0.218,-0.258 0.367,-0.414 0.566,-0.414 0.133,0 0.383,0.07 0.793,0.379 l 0.59,0.43 v -1 l 0.305,-0.086 z m -10.68,2.906 c -0.063,-0.175 -0.297,-0.273 -0.59,-0.277 0,-0.168 -0.043,-0.336 -0.09,-0.402 -0.168,-0.219 -2.082,-1.551 -2.347,-1.633 -0.032,-0.008 -0.071,-0.012 -0.11,-0.012 -0.09,0 -0.183,0.016 -0.285,0.043 -0.09,-0.293 -0.266,-0.496 -0.469,-0.496 -0.195,0 -0.371,0.191 -0.461,0.477 -0.117,-0.043 -0.242,-0.067 -0.336,-0.067 -0.05,0 -0.086,0.004 -0.121,0.012 -0.265,0.086 -2.172,1.426 -2.332,1.652 -0.047,0.063 -0.086,0.203 -0.093,0.356 -0.301,0 -0.543,0.094 -0.602,0.273 -0.059,0.184 0.07,0.395 0.312,0.567 -0.128,0.144 -0.203,0.336 -0.203,0.418 -0.007,0.277 0.727,2.437 0.903,2.656 0.047,0.055 0.179,0.144 0.343,0.199 -0.085,0.266 -0.058,0.504 0.098,0.613 0.149,0.106 0.391,0.063 0.617,-0.093 0.106,0.16 0.266,0.289 0.348,0.316 0.18,0.059 0.969,0.062 1.305,0.062 0.511,0 1.425,-0.015 1.597,-0.07 0.082,-0.027 0.219,-0.14 0.317,-0.281 0.25,0.168 0.492,0.223 0.656,0.109 0.148,-0.101 0.18,-0.332 0.101,-0.59 0.184,-0.046 0.336,-0.152 0.379,-0.214 0.176,-0.215 0.895,-2.379 0.891,-2.661 0,-0.078 -0.062,-0.238 -0.172,-0.375 0.258,-0.175 0.406,-0.39 0.344,-0.582 z m -9.121,-2.652 -1.727,0.258 c -0.027,0.004 -0.054,0.008 -0.082,0.016 L 9.309,43.109 V 42.727 H 8.094 v 0.382 L 4.02,42.242 v 6.266 l 0.304,0.086 v 1 l 0.586,-0.43 c 0.414,-0.309 0.66,-0.379 0.797,-0.379 0.195,0 0.348,0.156 0.566,0.414 0.051,0.055 0.102,0.113 0.153,0.168 0.285,0.305 0.582,0.453 0.922,0.453 0.394,0 0.828,-0.222 1.351,-0.687 0.528,0.465 0.957,0.687 1.36,0.687 0.336,0 0.632,-0.148 0.921,-0.453 0.047,-0.055 0.098,-0.113 0.153,-0.168 0.222,-0.258 0.367,-0.414 0.566,-0.414 0.133,0 0.383,0.07 0.797,0.379 l 0.582,0.43 v -1 l 0.305,-0.086 z m 5.203,9.969 c -12.621,0 -17.09,-3.86 -17.09,-3.86 V 37.246 c 1.711,0.875 3.77,1.606 5.961,2.18 -0.043,0.222 -0.078,0.445 -0.098,0.656 -0.054,0.609 0.059,1.074 0.34,1.383 0.207,0.226 0.485,0.351 0.781,0.351 0.325,0 0.926,-0.152 1.29,-1.168 0.082,-0.222 0.175,-0.433 0.269,-0.64 2.918,0.582 5.883,0.898 8.547,0.898 2.656,0 5.664,-0.312 8.578,-0.894 0.098,0.203 0.188,0.414 0.27,0.636 0.363,1.016 0.961,1.168 1.285,1.168 0.301,0 0.578,-0.125 0.785,-0.351 0.281,-0.309 0.394,-0.774 0.336,-1.383 -0.02,-0.215 -0.055,-0.437 -0.094,-0.664 2.18,-0.574 4.227,-1.301 5.93,-2.172 v 11.359 c 0,0 -4.477,3.86 -17.09,3.86"
       style="display:inline;fill:#e32123;fill-opacity:1;fill-rule:nonzero;stroke:none"
       id="path988"
       transform="matrix(0.35277777,0,0,-0.35277777,17.933435,119.98998)" />
    <path
       d="M 5.082,31.07 C 4.844,30.742 4.605,30.406 4.449,30.172 3.25,28.402 3.695,24.254 7.66,21.07 c 0.723,-0.578 1.293,-0.976 1.75,-1.3 1.07,-0.754 1.809,-1.442 1.774,-2.266 l -0.086,-0.832 c 0.64,0.312 0.882,0.652 0.945,1.297 0.164,1.855 -1.652,3.215 -2.219,3.586 -0.379,0.254 -0.711,0.422 -1.012,0.578 -0.585,0.297 -1.132,0.578 -1.132,1.234 0,0.613 0.582,1.067 1.148,1.375 -1.555,0.903 -3.394,2.719 -3.746,6.328"
       style="display:inline;fill:#e32123;fill-opacity:1;fill-rule:nonzero;stroke:none"
       id="path992"
       transform="matrix(0.35277777,0,0,-0.35277777,17.933435,119.98998)" />
    <path
       d="m 22.129,35.883 c 0.187,0.039 0.449,0.109 0.754,0.211 0.84,0.316 2.336,1.074 3.484,2.59 -2.637,0.515 -5.328,0.793 -7.734,0.793 -2.426,0 -5.133,-0.286 -7.785,-0.809 1.195,-1.574 2.769,-2.324 3.578,-2.617 0.258,-0.074 0.488,-0.133 0.648,-0.168 0.375,-0.078 0.758,-0.141 1.231,0.254 0.472,0.394 0.562,0.633 2.297,0.633 1.734,0 1.82,-0.239 2.293,-0.633 0.472,-0.395 0.859,-0.332 1.234,-0.254"
       style="display:inline;fill:#faca05;fill-opacity:1;fill-rule:nonzero;stroke:none"
       id="path980"
       transform="matrix(0.35277777,0,0,-0.35277777,17.933435,119.98998)" />
    <path
       d="m 31.18,31.652 -3.875,-6.394 c 1.461,0.66 3.648,2.324 3.875,6.394"
       style="display:inline;fill:#faca05;fill-opacity:1;fill-rule:nonzero;stroke:none"
       id="path982"
       transform="matrix(0.35277777,0,0,-0.35277777,17.933435,119.98998)" />
    <path
       d="M 9.898,25.258 6.023,31.652 C 6.25,27.582 8.438,25.918 9.898,25.258"
       style="display:inline;fill:#faca05;fill-opacity:1;fill-rule:nonzero;stroke:none"
       id="path984"
       transform="matrix(0.35277777,0,0,-0.35277777,17.933435,119.98998)" />
    <path
       d="m 28.375,24.742 c 0.563,-0.308 1.148,-0.762 1.148,-1.375 0,-0.656 -0.546,-0.937 -1.132,-1.234 -0.301,-0.156 -0.633,-0.324 -1.012,-0.578 -0.567,-0.371 -2.383,-1.731 -2.219,-3.586 0.059,-0.645 0.301,-0.985 0.945,-1.297 l -0.085,0.832 c -0.036,0.824 0.703,1.512 1.773,2.266 0.457,0.324 1.023,0.722 1.75,1.3 3.965,3.184 4.41,7.332 3.211,9.102 -0.16,0.234 -0.395,0.57 -0.633,0.898 -0.355,-3.609 -2.191,-5.425 -3.746,-6.328"
       style="display:inline;fill:#e32123;fill-opacity:1;fill-rule:nonzero;stroke:none"
       id="path990"
       transform="matrix(0.35277777,0,0,-0.35277777,17.933435,119.98998)" />
  </g>
</svg>
